<svg xmlns="http://www.w3.org/2000/svg" viewBox="0 0 259.43 218.66"><defs><style>.cls-1{opacity:0.7;}.cls-2{fill:#f0d8ea;}.cls-3{fill:#dddf70;}.cls-4{fill:#80a995;}.cls-5{fill:#009d98;}.cls-6{fill:#fff;}.cls-7{fill:#662482;}.cls-8{fill:#ce0a66;}.cls-9{fill:#f8bd2b;}.cls-10{fill:#aa82b9;}.cls-10,.cls-11{fill-rule:evenodd;}.cls-11{fill:#e2cae3;}.cls-12{fill:#ffd350;}.cls-13{fill:#66b2e4;}</style></defs><g id="Calque_2" data-name="Calque 2"><g id="Calque_1-2" data-name="Calque 1"><g class="cls-1"><path class="cls-2" d="M188.36,92.38c-.4-9.42-1.7-18.51-5.6-27.3A57.94,57.94,0,0,0,168.92,46a72.41,72.41,0,0,0-20.48-13c-9.26-4-19.3-6-29.18-8.16S99,25,89.1,26.13A59.69,59.69,0,0,0,75.44,29,53.48,53.48,0,0,0,63.17,35.5,110.75,110.75,0,0,0,43.08,53.79c-2,2.32-4,4.73-5.81,7.21-3.41,3.19-5.61,7-7.79,11a43.37,43.37,0,0,0-4.23,11.9c-1.89,9-.3,18.37,1,27.35,1.2,8.53,2.37,16.68,6.05,24.66a78.94,78.94,0,0,0,13.6,20c5.82,6.35,12,12.07,19.74,16.37,3.75,2.08,7.66,3.92,11.58,5.72,4.79,2.2,9.39,4.1,14.71,4.9a79.67,79.67,0,0,0,14.24.53,121.09,121.09,0,0,0,14.37-1.08,84.76,84.76,0,0,0,24-7.27c15-7.15,29.06-18.22,35.71-32.94,3.2-7.07,4.75-14.82,5.76-22.41C187.23,110.6,188.75,101.5,188.36,92.38Zm-4.71,14.35a186.5,186.5,0,0,1-4.19,23.16c-1.67,6.79-4.08,13.83-8.34,19.63-4.71,6.43-11.49,11.6-18.27,16a83.77,83.77,0,0,1-21.58,10.2c-8.36,2.54-16.93,3.42-25.69,3.68a71.56,71.56,0,0,1-14.11-.68,48.5,48.5,0,0,1-12.34-4.32c-7.52-3.47-15.36-7.06-21.42-12.57-11.83-10.77-22.26-23.53-25.44-39-.83-4-1.14-8.13-1.66-12.2-.54-4.28-1.07-8.57-1.34-12.87-.55-8.41,0-17.22,4.34-24.75,2.08-3.59,4.06-7.33,6.36-10.8a1.22,1.22,0,0,0,.21-.67A102.58,102.58,0,0,1,55,46C61.66,40.14,69,34.43,77.86,31.89a77.54,77.54,0,0,1,12.88-2.18c4.71-.51,9.41-1.17,14.14-1.61a45.8,45.8,0,0,1,14.45.65c4.66,1.05,9.33,2,14,3.22A82.63,82.63,0,0,1,157,41.79a58,58,0,0,1,26.47,38.14C185.18,88.8,184.66,97.8,183.65,106.73Z"/><path class="cls-2" d="M193.06,69.23a79.87,79.87,0,0,0-39-41.68,85.26,85.26,0,0,0-14.19-5.42c-5-1.41-10.12-2.15-15.21-3.15a132.93,132.93,0,0,0-16.24-2.6,62,62,0,0,0-17.92,1.51,161.87,161.87,0,0,0-22,6.43,13.28,13.28,0,0,0-2.54.84c-.51.24-1,.49-1.49.75a105.75,105.75,0,0,0-9.66,4.62,63.8,63.8,0,0,0-8.91,4.24,75.08,75.08,0,0,0-11.4,8.91c-4,3.57-7.64,7.22-9.36,12.22a62.27,62.27,0,0,0-1.74,7A58.55,58.55,0,0,1,21,70.58a55.43,55.43,0,0,0-3.35,14.88c-.87,11-1.54,22.26-.46,33.25a62.12,62.12,0,0,0,3.21,15.46,67.69,67.69,0,0,0,7.7,14.49,138.16,138.16,0,0,0,21.11,24c7,6.45,14.42,11.8,23.66,15.19a87.11,87.11,0,0,0,28.27,5,106.72,106.72,0,0,0,28.8-3.76c10.18-2.61,20.19-6.23,28.93-11.81,18-11.49,29.51-30.89,34.72-50.19C198.64,108.45,200.37,87.52,193.06,69.23Zm-.66,43.05c-3.05,19.18-10.89,38.12-25,52.7-6.94,7.2-15.59,11.8-25.09,15.55a123.83,123.83,0,0,1-28,7.36c-17.73,2.46-37.27.93-52.19-9.1-8.32-5.6-15.53-13.21-21.92-20.62-6.58-7.63-12.6-16-16-25.26-3.61-9.86-3.49-20.8-2.92-31.07.56-9.94.82-19.94,4.32-29.42,1.69-4.56,2.59-9.17,3.91-13.81s4.59-8,8.3-11.3c3.44-3.05,6.55-6.42,10.64-8.74,3.8-2.15,7.86-3.89,11.83-5.75,2.11-1,4.25-1.93,6.36-2.94C69.1,28.73,71.07,27,73.55,26a1.31,1.31,0,0,0,.46-.32L76.26,25c11.17-3.24,22.28-6.17,34.1-4.81,5.16.59,10.22,1.76,15.31,2.75,4.78.93,9.55,1.7,14.22,3.1,18.7,5.63,33.65,17.83,43.73,33.3a62.39,62.39,0,0,1,9.58,24.62C194.66,93.31,193.89,102.92,192.4,112.28Z"/><path class="cls-2" d="M203.92,82.69c-2.31-10-5.22-20.28-10.7-29.22-5.15-8.42-12.11-15.64-19.86-22a111.66,111.66,0,0,0-12-8.55,65.24,65.24,0,0,0-12.84-6.55c-9.61-3.32-20.1-3.84-30.1-5.61-2.64-.47-5.29-.93-8-1.16a44.76,44.76,0,0,0-8.81.36c-5.37.61-10.77.77-16.11,1.59a95.79,95.79,0,0,0-29,9.08c-8.9,4.54-16.49,10.88-24,17.23A85.78,85.78,0,0,0,22.28,47.91a40.14,40.14,0,0,0-7,13c-.06.16-.11.32-.16.47-5.45,9.09-6.4,19.91-7.31,30.13-1,10.77-.82,22,1.56,32.56,4.5,20.08,16.05,38.86,30.05,54.41A78.63,78.63,0,0,0,50,188.67a54.64,54.64,0,0,0,12.71,7,100.46,100.46,0,0,0,14,4.59,59.16,59.16,0,0,0,16.8,1.2c5.75-.27,11.5-1,17.26-1a98.69,98.69,0,0,0,15.46-1,85.4,85.4,0,0,0,27.77-9c9.08-4.93,16.37-11.36,23.11-18.83,7.23-8,14.69-15.83,19.72-25.31a83.88,83.88,0,0,0,9.47-30.78A101.3,101.3,0,0,0,203.92,82.69Zm-5.16,48.06a79.47,79.47,0,0,1-14.36,27.19c-3.16,3.92-6.6,7.64-10,11.37a94.56,94.56,0,0,1-10,9.84,83.51,83.51,0,0,1-24.86,13.43,87.84,87.84,0,0,1-14.24,3.78c-4.68.81-9.37,1.07-14.09,1.48-11.28,1-23.2,2.77-34.32-.12-9.32-2.42-18.76-5.79-26-12A96.11,96.11,0,0,1,41,175.28a146.66,146.66,0,0,1-9.22-11.94,132.23,132.23,0,0,1-14.1-25.75,84.45,84.45,0,0,1-6.32-29.95c-.23-10.54,1.85-21,3.06-31.39.55-4.73,1.31-9.61,3.94-13.78a1.49,1.49,0,0,0-.2-1.91,40.49,40.49,0,0,1,6.5-11.05c6-7.06,13.89-13,21.4-18.61A85.19,85.19,0,0,1,72.92,18,101.59,101.59,0,0,1,87.79,14.8c5.16-.69,10.36-.89,15.53-1.44,5.65-.6,10.89.3,16.43,1.29,4.8.86,9.66,1.37,14.48,2.14a74.36,74.36,0,0,1,13.71,3.26,62.14,62.14,0,0,1,11.58,6.11c16.09,10.1,29.53,24.44,35.28,42C201.41,88.33,204.94,110.07,198.76,130.75Z"/><path class="cls-2" d="M201.11,57.34c-4.26-10.3-9.79-20.48-18.55-27.85a139.57,139.57,0,0,0-13.8-9.77C164,16.6,159.43,13,154.34,10.4c-11.35-5.84-24-6.56-36.59-7.73A98.35,98.35,0,0,0,97.31,2.5c-6.92.81-13.77,2.12-20.56,3.61-11.5,2.51-22.93,5.12-33,11.23-1.38.83-2.72,1.7-4,2.6A90.54,90.54,0,0,0,25.3,30a76,76,0,0,0-6.82,6.23,37.16,37.16,0,0,0-4.65,6.84A73,73,0,0,0,7.66,58.81C4.09,71.67.82,85,.19,98.32c-.63,13.16.26,26.72,3.9,39.46,3.14,11,7.55,21.85,14.4,31.21,1.67,2.28,3.58,4.36,5.35,6.56s3.19,4.3,4.83,6.43a35.21,35.21,0,0,0,5.2,5.71,50.89,50.89,0,0,0,7.36,4.72c5.47,3.1,10.81,6.36,16.26,9.49a89,89,0,0,0,16.57,7.59c12.25,4,25.33,3,38,1.55,11.74-1.32,24.08-2.53,35.29-6.36A49.92,49.92,0,0,0,162,197a162.25,162.25,0,0,0,14.37-13.24c8.72-8.72,17.79-17.86,23.89-28.55a86.69,86.69,0,0,0,10.36-31.65C213.65,101,209.82,78.38,201.11,57.34Zm2.81,81.27a81.61,81.61,0,0,1-16.55,29c-8.21,9.45-16.93,18.81-26.59,26.91-8.63,7.24-20,9.74-31,11.36-12.22,1.8-24.66,3.36-37,3.26S69.2,205,58.6,199c-5.27-3-10.44-6.14-15.75-9.11a42.69,42.69,0,0,1-7.42-4.78,36.1,36.1,0,0,1-5.13-6c-3.12-4.25-6.62-8.23-9.66-12.53a77.84,77.84,0,0,1-8.19-15.05,115.7,115.7,0,0,1-8.07-36.1c-.88-12.71.51-25.65,2.87-38.16C9.34,66.1,11.86,54.25,18,44.43S33.93,27.89,43.38,21.49A46,46,0,0,1,57.23,15a1.28,1.28,0,0,0,1.09-1.32l1.31-.43A197.43,197.43,0,0,1,78.89,8.67,182.32,182.32,0,0,1,98.61,5.5a100.64,100.64,0,0,1,19,.33c6.2.58,12.51,1,18.65,2a56.63,56.63,0,0,1,16.55,5.37c4.85,2.49,9.15,5.9,13.69,8.86a156.34,156.34,0,0,1,13.16,9.19,52.26,52.26,0,0,1,10.74,12.07c12.2,18.57,17.63,41.16,17.92,63A101.78,101.78,0,0,1,203.92,138.61Z"/></g><path class="cls-3" d="M100.66,2.54C98-.16,93.53-.56,90.11.65s-6,3.71-8.55,6.17c-.88.87-1.76,1.75-2.63,2.63-2.79,2.81-4.72,6.6-3.51,10.79.88,3,2.81,5.75,4.71,8.39a14.17,14.17,0,0,0,3.12,3.47,10.52,10.52,0,0,0,4.61,1.69c5.73.84,11.61-1.36,14.74-5.7,1.71-2.37,2.59-5.22,3.66-7.95a24.17,24.17,0,0,0,2.11-6.88,7.53,7.53,0,0,0-2.8-6.73c-.85-.59-1.84-1-2.66-1.6A25.43,25.43,0,0,1,100.66,2.54Z"/><path class="cls-3" d="M102.58,41.54a3.73,3.73,0,0,0-2.38,3,8.57,8.57,0,0,0,.51,3.75l.39,1.28a3.93,3.93,0,0,0,2.83,2.94,10.34,10.34,0,0,0,3.46-.07,5.43,5.43,0,0,0,1.63-.41,3.7,3.7,0,0,0,1.31-1.18,5.58,5.58,0,0,0,.69-5.64,12.75,12.75,0,0,0-1.91-2.5,8.54,8.54,0,0,0-1.82-1.83,2.67,2.67,0,0,0-2.61-.25c-.33.17-.62.42-1,.57A8.71,8.71,0,0,1,102.58,41.54Z"/><path class="cls-3" d="M67.38,59.54c-2.19,1.4-2.23,5-.55,6.87a4.3,4.3,0,0,0,3.87,1.42,3.93,3.93,0,0,0,3.09-2.68,5.06,5.06,0,0,0-1.18-4.48,4.7,4.7,0,0,0-2.23-1.61A3.78,3.78,0,0,0,67.38,59.54Z"/><path class="cls-3" d="M120.47,38.59a1.5,1.5,0,0,0-1,1.22,3.57,3.57,0,0,0,.2,1.52c.06.17.11.34.16.51A1.59,1.59,0,0,0,121,43a4.4,4.4,0,0,0,1.4,0,2,2,0,0,0,.66-.17,1.49,1.49,0,0,0,.53-.47,2.28,2.28,0,0,0,.27-2.28,4.91,4.91,0,0,0-.77-1,3.41,3.41,0,0,0-.73-.74,1.09,1.09,0,0,0-1.05-.1c-.14.07-.25.17-.39.23A4,4,0,0,1,120.47,38.59Z"/><path class="cls-3" d="M30.09,42.19a1.52,1.52,0,0,0,1.43.64A3.66,3.66,0,0,0,33,42.25l.47-.28a1.62,1.62,0,0,0,.88-1.41,4.2,4.2,0,0,0-.38-1.36,1.93,1.93,0,0,0-.32-.6,1.51,1.51,0,0,0-.6-.4,2.28,2.28,0,0,0-2.29.29,5.17,5.17,0,0,0-.8,1,3.65,3.65,0,0,0-.54.91,1.1,1.1,0,0,0,.16,1.05c.1.11.23.2.33.32S30,42.05,30.09,42.19Z"/><path class="cls-3" d="M67.5,29.66a1.52,1.52,0,0,0,1.43.64,3.44,3.44,0,0,0,1.43-.58l.46-.28A1.6,1.6,0,0,0,71.7,28a4.14,4.14,0,0,0-.38-1.35,2,2,0,0,0-.32-.61,1.59,1.59,0,0,0-.59-.4,2.27,2.27,0,0,0-2.3.3,5.24,5.24,0,0,0-.8,1,3.71,3.71,0,0,0-.54.9,1.11,1.11,0,0,0,.17,1.05c.1.12.22.21.32.33S67.41,29.53,67.5,29.66Z"/><path class="cls-4" d="M127.47,183.46c-3.31-3.79-6.88-7.89-7.46-8.58-1-1.18-2-2.41-3-3.65l-1.46-1.81L114.35,168l0,0a1.5,1.5,0,0,1-.48-1.06,1.74,1.74,0,0,1,.11-.18c.1-.18.22-.38.33-.59l.17-.35c.32-.65.65-1.32,1-2,.63-1.42,1.24-2.85,1.85-4.28l.45-1.05c1.81-4.23,3.74-8.55,5.75-12.85S127.23,137.1,129,133l.92-2.16a22.73,22.73,0,0,0,1.57-5.56c.09-.59.13-1.18.16-1.73a5.47,5.47,0,0,0-.18-1.81,6.67,6.67,0,0,0-.35-1,1.69,1.69,0,0,0-2.43-.81l-.22.12-.07,0a5.4,5.4,0,0,0-1.11.91,23.48,23.48,0,0,0-2.73,3.43,42.73,42.73,0,0,0-4.3,8.5c-.73,1.92-1.37,3.9-2,5.82-.2.61-.39,1.22-.59,1.83-.71,2.18-1.36,4.56-2,7.27s-1.15,4.9-1.68,7a58.14,58.14,0,0,0-1.77,10.53,1.13,1.13,0,0,1-.1-.13l-.47-.63-.66-.88c-1.47-1.91-2.92-3.92-4.34-6-1.62-2.36-3-4.48-4.21-6.47-.31-.52-.31-.52-.11-1.07a1.86,1.86,0,0,1,.19-.37l0,0,.29-.48c.19-.3.39-.62.56-.95a18.83,18.83,0,0,1,2.43-3.69c1.08-1.25,2.18-2.49,3.26-3.67,2.09-2.3,4.27-4.84,6.87-8a49.07,49.07,0,0,0,4-5.66c1.3-2.17,2.41-4.1,3.37-5.91.9-1.66,1.59-3,2.18-4.36a27.28,27.28,0,0,0,1.78-5.37,12.33,12.33,0,0,0,.3-2.28,9,9,0,0,0-.27-2.63,4.1,4.1,0,0,0-.52-1.16,2,2,0,0,0-1.63-.91,3.65,3.65,0,0,0-.81.08,4,4,0,0,0-1.46.69,11.71,11.71,0,0,0-1.41,1.29,32.76,32.76,0,0,0-3.32,4.31,86.65,86.65,0,0,0-4.57,7.83c-1.79,3.46-3.54,6.57-5.34,9.53-1.09,1.79-2.12,3.67-3,5.59a41.18,41.18,0,0,0-4,12.29l0,.09a17.85,17.85,0,0,0-.23,2.33c-1.13-1.88-2.13-3.66-3-5.44-.86-1.63-1.61-3.15-2.32-4.63s-1.32-2.9-1.94-4.32l-.23-.51a2.92,2.92,0,0,0-.14-.31,5,5,0,0,1-.42-1.19v-.07l-.05,0c-.11-.1-.1-.15,0-.39l.37-.64c.25-.41.49-.82.73-1.23.11-.19.23-.37.35-.56a62.74,62.74,0,0,1,5.63-7.25l1-1.13c.53-.57,1.08-1.17,1.6-1.78q1.64-1.93,3.24-3.87l1.65-2,2.08-2.46c1.36-1.59,2.76-3.24,4.08-4.91l.74-.93c1-1.32,2.15-2.69,3.13-4.11a42.54,42.54,0,0,0,4-7.09A18.6,18.6,0,0,0,123,88.6a14.14,14.14,0,0,0,.09-1.73,4,4,0,0,0-.33-1.57,2.29,2.29,0,0,0-2.48-1.47,4,4,0,0,0-1.28.37,13.53,13.53,0,0,0-3.35,2.32,17,17,0,0,0-2.73,3.3,55.72,55.72,0,0,0-3.35,5.74q-1.21,2.39-2.42,4.77l-1.51,3a55.72,55.72,0,0,1-3.86,6.47c-1.62,2.37-2.85,4.19-4,5.9-.85,1.27-2,3-3,4.73a23.61,23.61,0,0,0-3,9.39h0c-1-2.64-1.87-5.26-2.59-7.79-.26-.9-.51-1.81-.75-2.72-.19-.69-.37-1.38-.57-2.07a1.29,1.29,0,0,1,.16-1,1.74,1.74,0,0,1,.11-.18l.09-.14c.07-.11.14-.23.22-.34s.33-.53.47-.8a49.12,49.12,0,0,1,3.64-6c1.73-2.43,3.18-4.44,4.85-6.41.93-1.09,1.91-2.17,2.87-3.21l.89-1,1.46-1.6c1.82-2,3.7-4.08,5.58-6.09A52.32,52.32,0,0,0,112.69,85a59,59,0,0,0,3.93-6.23,14.74,14.74,0,0,0,1.24-3,11.05,11.05,0,0,0,.31-1.54,4.19,4.19,0,0,0-.3-2.2,1.83,1.83,0,0,0-2.06-1.18,2.9,2.9,0,0,0-.89.27,10,10,0,0,0-1.37.76,23.24,23.24,0,0,0-3.78,3.19,42.3,42.3,0,0,0-3.85,4.65l-1.78,2.46c-3.35,4.6-6.8,9.35-10.09,14.11-1.15,1.67-2.3,3.36-3.4,5-.44.65-.82,1.35-1.21,2.06a19.24,19.24,0,0,0-2,5.67c-.16.89-.3,1.8-.43,2.67l-.15,1-.48-2.26a1.46,1.46,0,0,1,0-.29,36.23,36.23,0,0,1,.33-7l.09-.66a129.94,129.94,0,0,1,2.49-14.29l.47-2.12c.5-2.22,1-4.52,1.49-6.78a129.66,129.66,0,0,0,2.58-17.45,37.85,37.85,0,0,0,0-6.92,11.7,11.7,0,0,0-.2-1.28,3.32,3.32,0,0,0-.26-.77,1.74,1.74,0,0,0-1-.87,1.53,1.53,0,0,0-1.19.14,3.81,3.81,0,0,0-1,.72,8.34,8.34,0,0,0-1.18,1.51,33.27,33.27,0,0,0-2,3.61,43.54,43.54,0,0,0-2.72,7.91c-.67,2.76-1.09,5.49-1.39,7.57a83.17,83.17,0,0,0-.8,15.84c.19,3.73.48,7.49.88,11.19.45,4.17,1,7.91,1.76,11.42.2,1,.42,1.91.63,2.86.08.34.16.69.23,1l-.08-.16c-.13-.27-.26-.53-.4-.8-.28-.57-.56-1.15-.87-1.72-1.22-2.28-2.26-4.1-3.28-5.71-1.79-2.83-3.78-5.81-6.07-9.1L74,97l-2.16-3.1-1.12-1.55-.71-1-1.92-2.66L67.6,88c-.77-1.06-1.56-2.15-2.37-3.2s-1.79-2.3-2.82-3.54-2-2.42-3.06-3.58l-.07-.08a11.53,11.53,0,0,0-1-1,3.37,3.37,0,0,0-.76-.53,1.09,1.09,0,0,0-1.58.59,2.67,2.67,0,0,0-.18.69,3.71,3.71,0,0,0,0,.81c0,.55.09,1,.15,1.44a23.25,23.25,0,0,0,1.28,4.55c.77,2.06,1.55,3.93,2.37,5.72.69,1.49,1.34,2.76,2,3.9A74.6,74.6,0,0,0,68,103.4c1.2,1.5,2.51,3,4,4.58,1.83,1.92,3.84,3.86,6.32,6.11,2.26,2,4.19,3.93,5.92,5.76l.13.13a29,29,0,0,0,3,2.88.83.83,0,0,1,.26.47c.21.72.43,1.45.65,2.17,1,3.09,2.09,6.23,3.48,9.58l-.41-.47c-.72-.82-1.43-1.63-2.13-2.46-1.81-2.13-3.73-4.12-5.53-6l-.64-.65c-1.68-1.71-3.41-3.48-5.09-5.25-1.34-1.41-2.68-2.86-4-4.28l-1.16-1.26a89.59,89.59,0,0,0-8.79-8.32,39.22,39.22,0,0,0-6.29-4.34,17.89,17.89,0,0,0-2.68-1.25,12.37,12.37,0,0,0-1.45-.4,2.8,2.8,0,0,0-1.35,0A1.59,1.59,0,0,0,51,101.82a2.37,2.37,0,0,0,0,.92l-.27.35.29-.26,0,.11a11.67,11.67,0,0,0,.54,1.48,19.76,19.76,0,0,0,3,4.54,49.11,49.11,0,0,0,4.08,4.15c2.55,2.34,5.32,4.72,8.72,7.48l3.2,2.63c1.72,1.41,3.5,2.87,5.26,4.29,3.33,2.66,6.08,4.73,8.66,6.52l1.29.88c1,.69,2.06,1.4,3.05,2.14,1.23.91,2.46,1.87,3.65,2.79l2,1.51a1.48,1.48,0,0,1,.37.5l.55,1.08c.42.82.84,1.64,1.27,2.46,1,1.81,2,3.64,3.08,5.44,1,1.6,2,3.21,3,4.77l.74,1.19c.22.35.46.69.69,1l.33.49-.76-.39c-.61-.31-1.25-.64-1.85-1-2.4-1.46-4.93-3-7.74-4.79l-4.1-2.6c-2.11-1.34-4.3-2.72-6.46-4.06-2-1.21-4-2.41-6-3.56l-3.43-2L70,137.34l-5-3c-1.65-1-3.41-2-5.23-2.91a16.53,16.53,0,0,0-2.26-.95,9.64,9.64,0,0,0-1.09-.27,2.07,2.07,0,0,0-1,0,1.09,1.09,0,0,0-.86,1,2.74,2.74,0,0,0,.06.78,4.83,4.83,0,0,0,.57,1.31,18.47,18.47,0,0,0,2.12,2.87,38.93,38.93,0,0,0,3.5,3.47,69.24,69.24,0,0,0,11.21,8.09c2.79,1.64,5.65,3.1,9.09,4.79A96.29,96.29,0,0,0,94.37,158a56.78,56.78,0,0,0,5.87,1.64,24.76,24.76,0,0,0,5.13.62.8.8,0,0,1,.76.4c.43.62.87,1.23,1.29,1.8l.65.89c.72,1,1.46,2,2.22,3,1.14,1.49,2.33,3,3.64,4.65s2.49,3.08,3.61,4.41,8.72,10,12.38,14.22A47.43,47.43,0,0,0,127.47,183.46Z"/><path class="cls-5" d="M121.24,215.4c-4.82,0-9.49-2.29-13.15-6.45-4.29-4.87-4.56-11-.73-16.49,3.33-4.75,8.2-6.47,12.53-7.53a16.59,16.59,0,0,0,9.91-6.27,20.71,20.71,0,0,0,3.71-17.85c-1.28-5.85-1-10.61.76-15,1.87-4.55,4.75-7.12,8.55-7.67a10,10,0,0,1-.43-8.87c1.5-3.72,4.7-6.13,8.14-6.13a7.18,7.18,0,0,1,2.51.45,7.68,7.68,0,0,1,4.37,4.28,9.65,9.65,0,0,1,.71,2.64,6.87,6.87,0,0,1,1-.08,5.63,5.63,0,0,1,2.74.69,6.69,6.69,0,0,1,3.73,6.36,6,6,0,0,1,1.85.69c3.07,1.7,4,4.22,2.9,7.48l-.07.18a6.22,6.22,0,0,1,1,.57c2.76,2,2.79,4.34,2.14,6.19a4.91,4.91,0,0,1,1,.78A4.77,4.77,0,0,1,175,160l-.09.14-.1.12c-.94,1.08-2.5,2.91-4.92,2.91a4.59,4.59,0,0,1-1.31-.2,22.37,22.37,0,0,1-3.37,13.29C157.16,189.79,146,201.51,131,212.11a17,17,0,0,1-9.79,3.29Z"/><path class="cls-6" d="M150.53,126.41a4,4,0,0,1,1.39.25c2.67,1,3.82,4.77,2.41,8a5.93,5.93,0,0,1-5.13,3.88,4,4,0,0,1-1.51-.3c-2.63-1.08-3.62-4.46-2.28-7.78,1-2.53,3.06-4.09,5.12-4.09m8.6,7.29a2.46,2.46,0,0,1,1.19.29c2.34,1.27,2.38,3.39,1.55,5.58a4.83,4.83,0,0,1-4.16,3.3,2.68,2.68,0,0,1-1.4-.38c-2.27-1.36-2.14-3.47-1.53-5.29.95-2.14,2.76-3.5,4.35-3.5m5.38,6.94a2.84,2.84,0,0,1,1.36.38c1.17.66,2.18,1.33,1.4,3.56-1,2.11-1.9,3.75-3.48,3.75a3.06,3.06,0,0,1-1.26-.31c-2.11-.93-2-2.86-1.18-4.68.67-1.47,1.78-2.7,3.16-2.7m-20.1.65a15,15,0,0,1,5.65,1.36,30.83,30.83,0,0,1,12.05,11.09c4.16,6.84,4.46,13.92.32,20.86-8.44,14.13-20,25.41-33.28,34.86a13.63,13.63,0,0,1-7.9,2.68c-3.88,0-7.65-1.86-10.72-5.34-3.31-3.77-3.43-8.3-.51-12.47,2.62-3.73,6.5-5.22,10.64-6.23a19.91,19.91,0,0,0,11.74-7.48,24,24,0,0,0,4.3-20.51c-1-4.39-1.18-8.77.58-13.05,1.57-3.82,3.79-5.77,7.13-5.77m23.68,7.32a2.07,2.07,0,0,1,1.24.44c.86.62,1.6,1.25.78,2.93-.92,1.47-1.75,2.63-2.88,2.63a2.27,2.27,0,0,1-1.18-.37c-1.56-.93-1.31-2.44-.49-3.79a3.29,3.29,0,0,1,2.53-1.84m2.82,6.55a1.67,1.67,0,0,1,1.18.53,1.58,1.58,0,0,1,.25,2.45c-.85,1-1.61,1.78-2.44,1.78a1.73,1.73,0,0,1-1.1-.46c-1.14-1-.75-2.13.08-3.11a2.91,2.91,0,0,1,2-1.19M150.53,119.9c-4.78,0-9.16,3.2-11.16,8.16a13.93,13.93,0,0,0-.8,8c-2.72,1.32-5.4,3.86-7.31,8.51-2.07,5-2.36,10.4-.93,16.93a17.42,17.42,0,0,1-3.14,15.19,13.31,13.31,0,0,1-8.08,5.07c-4.62,1.13-10.44,3.15-14.42,8.82-4.68,6.67-4.32,14.53,1,20.51,4.29,4.87,9.83,7.56,15.61,7.56a20.19,20.19,0,0,0,11.67-3.89c15.32-10.87,26.8-22.92,35.1-36.83a26.43,26.43,0,0,0,3.85-11.75,10.87,10.87,0,0,0,5.42-3.8l.21-.24.18-.27a8,8,0,0,0-.74-10.55,8,8,0,0,0-3-6.92c.34-2.69-.23-6.46-4.93-9.08l-.35-.18a10.18,10.18,0,0,0-5.26-6.89,9.1,9.1,0,0,0-2.74-.95c-.09-.24-.19-.48-.29-.72a10.91,10.91,0,0,0-6.24-6,10.48,10.48,0,0,0-3.63-.64Z"/><path class="cls-7" d="M156.52,76.18a1.71,1.71,0,0,0-1-2.34c-2.4-1.2-4.68-3-7.3-3.69a.82.82,0,0,0-.88,1.31,46.86,46.86,0,0,0,6.7,5.36A1.7,1.7,0,0,0,156.52,76.18Z"/><path class="cls-7" d="M149.29,83.09c.23-1.45-.71-3.08-1.26-4.39-.34-.83-.66-1.66-1-2.47a9.05,9.05,0,0,0-.82-1.85,1.16,1.16,0,0,0-2,.08c-.67,1.42.15,3.47.65,4.85.28.75.56,1.5.82,2.25a15,15,0,0,0,.69,2A1.64,1.64,0,0,0,149.29,83.09Z"/><path class="cls-7" d="M136,84.63l2.31-4.7c.76-1.53,1.77-2.91,2.63-4.38.57-1-.59-2.49-1.69-1.76-3.26,2.17-4.39,6.15-6.15,9.45C132.14,85,135.1,86.46,136,84.63Z"/><path class="cls-7" d="M127.84,72.15c2.64-.42,5.68.18,8-1.29.9-.56.42-2.18-.73-1.85-2.57.73-5.22-.25-7.79.3A1.44,1.44,0,0,0,127.84,72.15Z"/><path class="cls-7" d="M139.09,66.75c1,.42,1.65-1.12.77-1.7a16,16,0,0,1-3.47-3.19,41.16,41.16,0,0,0-3-3.74,1.55,1.55,0,0,0-1.81-.29,1.62,1.62,0,0,0-.71.86,1.55,1.55,0,0,0,.66,1.71,34.57,34.57,0,0,1,3.65,3.4A11.15,11.15,0,0,0,139.09,66.75Z"/><path class="cls-7" d="M145.19,63a17.55,17.55,0,0,0-.46-2.67c-.16-1-.28-1.93-.4-2.9-.16-1.3-.43-4.82-2.62-4-1.05.42-1,1.46-.74,2.37s.44,1.64.66,2.46c.46,1.71.68,3.92,1.78,5.36A1,1,0,0,0,145.19,63Z"/><path class="cls-7" d="M150.33,64.34a16.24,16.24,0,0,1,3-3.15c1.11-1,2.59-1.88,3.38-3.17a1.44,1.44,0,0,0-.32-1.71,1.51,1.51,0,0,0-1.74-.16,8.42,8.42,0,0,0-1.85,1.53c-.63.59-1.25,1.18-1.85,1.8a12.09,12.09,0,0,0-2.52,4C148.06,64.58,149.74,65.3,150.33,64.34Z"/><path class="cls-7" d="M152.71,69.08c.74.06,1.46.2,2.2.3a19.44,19.44,0,0,0,2.15.16,2.42,2.42,0,0,0,1-.12,1.6,1.6,0,0,0,.54-.34c.14-.12.23-.42.36-.51a.69.69,0,0,0-.15-1.18h0c-.84-1.09-2.67-.72-3.93-.67-.72,0-1.44.08-2.17.1a3,3,0,0,0-2,.51.82.82,0,0,0,.14,1.29A3.32,3.32,0,0,0,152.71,69.08Z"/><path class="cls-8" d="M237,142.42a1.34,1.34,0,0,0,.28,0c8.72-1.59,16.65-6.95,20.48-15.12,2.58-5.51,2.72-13.29-3.4-16.57-6.6-3.54-13,3-16.65,7.9-5,6.83-6.55,14.66-3.13,22.54-.62.83-1.26,1.66-1.93,2.45a46.76,46.76,0,0,1-14.7,11.64,108.08,108.08,0,0,0,5.74-17.46,235.3,235.3,0,0,0,5.62-29.17,1,1,0,0,0,1.28-.51c14-4.62,12.71-33.1-1.11-37.36-7.36-2.26-11.58,6-11.85,12.16-.39,9,4.62,17.32,10.18,24.06a260.24,260.24,0,0,1-5.52,28.52q-.56,2.35-1.2,4.71A49.37,49.37,0,0,0,218,127.77a.31.31,0,0,0,.2-.24c1.18-7-.3-15.33-4.72-21.09-2.65-3.45-8.37-7.39-12.68-4.23-3.94,2.89-1.52,10.08.22,13.58a22.07,22.07,0,0,0,14.57,11.64,1.06,1.06,0,0,0,.47,0c.17.47.33.92.48,1.36a68.48,68.48,0,0,1,3,16,1,1,0,0,0,.14.4A79.3,79.3,0,0,1,213.32,160c-4.78,8.5-11,14.18-18.68,20a.82.82,0,0,0,.82,1.43c10.14-4.65,17.13-14.31,21.9-24.84C224.77,154.19,231.62,148.84,237,142.42Zm-19.61-16.13c-1.84-4.42-4.39-10-8.4-12.78-.41-.29-.92.38-.54.7,3,2.46,5.19,6.94,6.77,11a20,20,0,0,1-10.17-7,19.64,19.64,0,0,1-3.16-5.83c-1-3-1.49-4.74.84-7.08,1.15-2.22,2.8-2.5,4.94-.87a12.29,12.29,0,0,1,3,2.39,22.36,22.36,0,0,1,4,6.09A33.35,33.35,0,0,1,217.38,126.29ZM230.51,107a.36.36,0,0,0,0-.09l-.89-1.12a81,81,0,0,0-.81-22.43c-.14-.7-1.18-.41-1.07.28a81,81,0,0,1,.42,20.26c-3.31-4.4-6.22-9.14-7.57-14.54a19.47,19.47,0,0,1-.36-9c1-4.43,5.2-9.45,10.11-6.66C240.76,79.58,240.56,100.62,230.51,107Zm8.64,32.74a53.69,53.69,0,0,0,6.44-11.26c.3-.72-.79-1.28-1.28-.74-3.41,3.77-6,8.25-9,12.41a22.23,22.23,0,0,1,2.86-18.3c3.29-5.12,9.87-12.94,16.6-8.08,3.37,2.44,2.71,7.9,1.52,11.21a22.15,22.15,0,0,1-4.5,7.22A25.47,25.47,0,0,1,239.15,139.7Z"/><path class="cls-9" d="M189.67,173.63a7.34,7.34,0,0,0,6.59-3.77,17,17,0,0,0,1.83-7.23c.09-.88.17-1.75.24-2.63.24-2.79-.44-5.73-3-7.45a20.32,20.32,0,0,0-6.37-2.42,10.13,10.13,0,0,0-3.28-.46,7.34,7.34,0,0,0-3.26,1.18,11,11,0,0,0-5.42,9.79,24.8,24.8,0,0,0,1.63,6,17.38,17.38,0,0,0,2,4.7,5.32,5.32,0,0,0,4.58,2.37c.73-.06,1.44-.31,2.17-.33A18,18,0,0,1,189.67,173.63Z"/><path class="cls-9" d="M189.94,194.7a3.5,3.5,0,0,0-.11-3.6,8.07,8.07,0,0,0-2.62-2.38l-1.05-.69a3.7,3.7,0,0,0-3.79-.41,9.82,9.82,0,0,0-2.43,2.14A5,5,0,0,0,179,191a3.5,3.5,0,0,0-.23,1.63,5.23,5.23,0,0,0,2.89,4.46,12.08,12.08,0,0,0,2.87.65A8.47,8.47,0,0,0,187,198a2.53,2.53,0,0,0,2-1.39c.14-.32.2-.67.35-1A8.18,8.18,0,0,1,189.94,194.7Z"/><path class="cls-9" d="M186.44,137.56a1.4,1.4,0,0,0-1.41.4,3.26,3.26,0,0,0-.68,1.27l-.17.48a1.51,1.51,0,0,0,.22,1.54,3.91,3.91,0,0,0,1.08.74,1.84,1.84,0,0,0,.6.24,1.35,1.35,0,0,0,.66-.07,2.1,2.1,0,0,0,1.47-1.59,4.76,4.76,0,0,0,0-1.19,3.17,3.17,0,0,0-.15-1,1.06,1.06,0,0,0-.75-.66c-.14,0-.29,0-.42,0S186.58,137.6,186.44,137.56Z"/><path class="cls-10" d="M157.42,84.66a5.8,5.8,0,0,1,4.67-.46A7.58,7.58,0,0,1,166.41,87a6.24,6.24,0,0,1,1.11,5.21,7.77,7.77,0,0,1-3.65,4.52c-4,2-8.34.32-9.48-3.25S154.62,86,157.42,84.66Z"/><path class="cls-11" d="M156.84,86.92a3,3,0,0,1,3.76,1.33,2.78,2.78,0,0,1-1.19,4,3,3,0,0,1-2.57-5.31Z"/><path class="cls-10" d="M157.22,112.32a3.28,3.28,0,0,1-1.48-2.19,4.32,4.32,0,0,1,.25-2.9,3.53,3.53,0,0,1,2.29-1.93,4.42,4.42,0,0,1,3.21.6c2,1.45,2.38,4,.91,5.56A4.08,4.08,0,0,1,157.22,112.32Z"/><path class="cls-11" d="M158.49,112a1.7,1.7,0,0,1-.34-2.22,1.57,1.57,0,0,1,2.29-.47,1.66,1.66,0,0,1-1.95,2.69Z"/><path class="cls-12" d="M221.82,25.64l-6.74,21.53a7.1,7.1,0,0,0-2.5-1.38c-3-.93-5.87.09-6.58,2.33s1.09,4.73,4.08,5.67,5.88-.09,6.58-2.33l5.52-17.65,17.42.43-4.2,13.43a7.13,7.13,0,0,0-2.49-1.37c-3-.94-5.88.09-6.58,2.33s1.09,4.73,4.07,5.66,5.88-.08,6.58-2.33L245,26.21Z"/><path class="cls-13" d="M217,17.32l-.73-2.7a12.58,12.58,0,0,0-15.42-8.83l-1.35.36,6.06,22.31a5.57,5.57,0,1,0,3.95,3.91L203,8.21a9.78,9.78,0,0,1,10.61,7.15l.74,2.69a1.4,1.4,0,0,1-2.7.73l-.73-2.69-2.69.73.73,2.69A4.19,4.19,0,1,0,217,17.32Z"/></g></g></svg>