<svg xmlns="http://www.w3.org/2000/svg" viewBox="0 0 320 212.87"><defs><style>.cls-1{isolation:isolate;}.cls-2{fill:#fff;}.cls-3{fill:#fbbe5e;}.cls-4{fill:#83c06f;}.cls-5{fill:#83d0f5;}.cls-6{fill:#ffea64;}.cls-7{fill:#009e99;}.cls-8{fill:#f7ab59;}.cls-9{fill:#d676ad;}.cls-10{fill:#66b2e4;}.cls-11{fill:#cae9fb;}.cls-12{fill:#eb5e50;}.cls-13{fill:#bcd8e9;mix-blend-mode:multiply;opacity:0.27;}.cls-14{fill:#ffd350;}.cls-15{opacity:0.3;}.cls-16{fill:#ac8643;stroke:#ac8643;stroke-linejoin:round;stroke-width:1.39px;}</style></defs><g class="cls-1"><g id="Calque_2" data-name="Calque 2"><g id="Calque_1-2" data-name="Calque 1"><path class="cls-2" d="M270.27,0H147.92C85.13,19.27,26.56,53.68,6,88.84,6,88.84-.9,99,.1,119,.1,134.05,6,150,6,150c31.23,95.12,105.88,29.28,169.34,42.94,34.43,7.41,48.17,34.87,98.47,9.32s64.86-75.76,16.54-154C274.91,23.2,269.92,8.47,270.27,0Z"/><g id="Base_logo_complet" data-name="Base logo complet"><path class="cls-3" d="M135.81,67.79a25.81,25.81,0,0,1,0-2.64c-1,.76-2.05,1.54-3,2.4a42.9,42.9,0,0,0-3.92,3.57A21.48,21.48,0,0,0,126.2,75a41.93,41.93,0,0,0-3.51,9c-1.67,6.1-3.43,13.23-3.88,19.71l2.53-1.32c.29-2.65.69-5.28,1.18-7.89,1.17-6.35,2.58-13.12,6.09-18.74A33,33,0,0,1,135.82,68C135.82,67.91,135.81,67.85,135.81,67.79Z"/><path class="cls-3" d="M223.51,66.57a80.34,80.34,0,0,0-8-5.5,97.49,97.49,0,0,0-8.35-5.25,38.83,38.83,0,0,0-12.8-3.47c.07.18.16.34.23.52a16.15,16.15,0,0,1,1,1.42c.37.05.74.09,1.1.15a33.19,33.19,0,0,1,9.57,3,91.61,91.61,0,0,1,7.92,5,88.88,88.88,0,0,1,7.63,5.18,29.49,29.49,0,0,1,6.23,6.83c.47.68.88,1.4,1.31,2.1a12.85,12.85,0,0,1,1.52-1A32.91,32.91,0,0,0,223.51,66.57Z"/><path class="cls-4" d="M138.12,77.12a14.94,14.94,0,0,0-4,5.62,35.59,35.59,0,0,0-1.09,4,33,33,0,0,1-1.45,4.41,32.64,32.64,0,0,0-1.92,7.15,13.68,13.68,0,0,1,3-.77,32.21,32.21,0,0,1,1.54-5.35c1-2.61,1.6-5.24,2.41-7.89a9.74,9.74,0,0,1,3-4.35A25.75,25.75,0,0,1,138.12,77.12Z"/><path class="cls-4" d="M208.72,66a47.26,47.26,0,0,0-8.11-3c-.76-.2-1.52-.38-2.29-.54a19.49,19.49,0,0,1,0,2.16c.77.18,1.53.36,2.29.59a43.59,43.59,0,0,1,21.76,14.59,5.57,5.57,0,0,1,1.53-.25,5.67,5.67,0,0,1,1.38.17A44.52,44.52,0,0,0,208.72,66Z"/><path class="cls-5" d="M217.15,76.85a40.88,40.88,0,0,0-11.67-7.29,56.82,56.82,0,0,0-7.5-2.49c-.12.65-.26,1.28-.44,1.92l-.06.19a46.48,46.48,0,0,1,12.83,5.31,33.1,33.1,0,0,1,8.77,7.91,5.83,5.83,0,0,1,1.56-1.79A33.37,33.37,0,0,0,217.15,76.85Z"/><path class="cls-5" d="M143.31,84.61c-.29-.27-.55-.57-.82-.86-.44.53-.88,1.06-1.3,1.6a23.9,23.9,0,0,0-4.59,6.17,23.51,23.51,0,0,0-2.35,5.94,4.84,4.84,0,0,1,1.73.43q.35.17.69.36a18.4,18.4,0,0,1,2.3-6.1c1.23-2,2.4-4.13,3.76-6.08a.67.67,0,0,0,.13-.38c.21-.26.44-.51.65-.78Z"/><path class="cls-6" d="M218.21,67.73a63.39,63.39,0,0,0-6.93-4.82,37.72,37.72,0,0,0-7.42-3.68,44,44,0,0,0-6.48-1.53A14.61,14.61,0,0,1,198,60a36.2,36.2,0,0,1,5.47,1.38,36.61,36.61,0,0,1,6.71,3.44A51.51,51.51,0,0,1,226.5,80a10.77,10.77,0,0,1,1.56-2.27A54.29,54.29,0,0,0,218.21,67.73Z"/><path class="cls-6" d="M136.52,72.43a46.28,46.28,0,0,0-5.42,5.33,22.63,22.63,0,0,0-4,7.42l-.09.27c-3,5-3.58,10.85-4,16.46l1.55-1s.53-.36,1.36-.84c.27-2,.55-4.1.78-6.16a18.23,18.23,0,0,1,2.23-7.86.84.84,0,0,0-.12-1.09,22.94,22.94,0,0,1,3.72-6.32A45,45,0,0,1,137,74.12C136.81,73.56,136.66,73,136.52,72.43Z"/><path class="cls-7" d="M106.31,145a2.31,2.31,0,0,0,.32-1.89,2.68,2.68,0,0,0-3-2,2,2,0,0,0-1,.48,12.26,12.26,0,0,1-3.16.8c-6.13.94-12,.77-20.05.13a12.18,12.18,0,0,1-.1-3.09c.41-7.67,4.71-21.89,6.54-27.65l.46-1.48c1.54-4.86,3.13-9.89,3.34-13.72.12-2.2.25-4.69-.93-5.91A2.45,2.45,0,0,0,86.75,90a3,3,0,0,0-1,.23,2.71,2.71,0,0,0-1.82,2.39,2.81,2.81,0,0,0,.18.91l.06.12c.09.16.24.76.11,3-.16,3.07-1.36,6.82-3.33,13l-1,3c-2.09,6.57-5.75,19.6-6.14,26.79a21.19,21.19,0,0,0,0,2.54c-1.85.11-2.83.9-2.94,2.34a2.86,2.86,0,0,0,.14,1,2.74,2.74,0,0,0,2.21,1.94h.09a3.86,3.86,0,0,0,.81-.09l.12,0c.21-.09.9-.13,3.05.2l1.09.11c6.44.55,14.77,1,22.15-.11C102.83,147.05,105.34,146.49,106.31,145Zm150.24-1.63a2.62,2.62,0,0,0,2,1,2.73,2.73,0,0,0,2.61-2.54,2.48,2.48,0,0,0-.52-1.73c-1-1.13-1.44-2.92-1.29-5.61a76.64,76.64,0,0,1,2-11l.17-.79c.77-3,1.5-6.36,1.64-7.28a2.63,2.63,0,0,0-.5-2.2,1.72,1.72,0,0,0-1.38-.67,2.83,2.83,0,0,0-2.94,2.21c-2.79,14.51-8.49,25.14-13.55,25.28a1.81,1.81,0,0,1-1.4-.56c-1-1-1.46-3.53-1.27-7A73.21,73.21,0,0,1,245,117V117l0-.5a2.44,2.44,0,0,0-.69-1.85,2.38,2.38,0,0,0-1.82-.73c-2,0-2.45,1.78-2.7,2.7l-.08.32A88.23,88.23,0,0,0,237,132.44c-.27,5,.6,8.52,2.59,10.57a6.32,6.32,0,0,0,4.18,1.89,6.77,6.77,0,0,0,.77,0c3.57-.1,7.23-2.86,9.87-7.35A9.79,9.79,0,0,0,256.55,143.41ZM196.3,145.7h.28a2.67,2.67,0,0,0,2.61-2.54,2,2,0,0,0-.26-1.13,12.62,12.62,0,0,1-.12-3.26c.42-7.67,4.45-21.92,6.17-27.69l.42-1.45c1.45-4.88,2.94-9.92,3.15-13.74.13-2.35.26-4.78-.89-6a2.29,2.29,0,0,0-1.76-.66h0a2.67,2.67,0,0,0-1,.24,2.72,2.72,0,0,0-1.71,2.39,3,3,0,0,0,.16.89l0,.12c.11.2.22.88.1,3-.17,3.07-1.29,6.85-3.14,13.09l-.89,3c-2,6.58-5.4,19.62-5.79,26.8-.13,2.35-.1,4.93,1.11,6.18A2.26,2.26,0,0,0,196.3,145.7Zm19.07-.11a8.69,8.69,0,0,0,1,0c9.34-.26,15.68-10.85,16.21-20.52.22-4.17-.83-7.67-3-9.87a8.39,8.39,0,0,0-6.44-2.47,9.92,9.92,0,0,0-9.69,9.42,7.44,7.44,0,0,0,1.91,5.67,7.85,7.85,0,0,0,6.06,2.13c2.71-.07,3-2,3.05-2.55a2.32,2.32,0,0,0-.65-1.76,2.46,2.46,0,0,0-1.87-.73c-.9,0-2.12.06-2.81-.64a2.8,2.8,0,0,1-.56-2.17c.09-1.63,1.08-4.43,4.22-4.51a3.68,3.68,0,0,1,2.85,1.1c1.47,1.52,1.88,4.31,1.76,6.42-.4,7.41-4.81,15.45-10.73,15.62a4,4,0,0,1-3.09-1.24c-1.8-1.85-2.28-5.32-2.14-8a18.21,18.21,0,0,1,1.06-5.48,3,3,0,0,0,.26-1.07,2.39,2.39,0,0,0-.68-1.81,2.17,2.17,0,0,0-1.66-.68,2.83,2.83,0,0,0-2.44,1.81,21.15,21.15,0,0,0-1.67,7.37c-.27,4.81.91,8.82,3.3,11.28A8.54,8.54,0,0,0,215.37,145.59ZM173.3,146.9c.33,0,.68,0,1,0,9.34-.25,15.69-10.85,16.21-20.52.23-4.16-.82-7.66-3-9.86a8.4,8.4,0,0,0-6.44-2.48,9.93,9.93,0,0,0-9.69,9.43,7.46,7.46,0,0,0,1.91,5.67,7.89,7.89,0,0,0,6.06,2.13c2.7-.08,3-2,3.05-2.55a2.36,2.36,0,0,0-.65-1.76,2.44,2.44,0,0,0-1.87-.73c-.9,0-2.12.06-2.81-.65a2.82,2.82,0,0,1-.56-2.16c.09-1.64,1.08-4.43,4.22-4.52a3.65,3.65,0,0,1,2.85,1.11c1.47,1.51,1.88,4.31,1.76,6.42-.4,7.41-4.81,15.45-10.73,15.61a4,4,0,0,1-3.09-1.24c-1.8-1.85-2.28-5.31-2.14-7.94a18.34,18.34,0,0,1,1.06-5.49,3.22,3.22,0,0,0,.26-1.06,2.41,2.41,0,0,0-.68-1.82,2.21,2.21,0,0,0-1.66-.68,2.86,2.86,0,0,0-2.44,1.82,21.15,21.15,0,0,0-1.67,7.37c-.26,4.81.91,8.81,3.3,11.27A8.6,8.6,0,0,0,173.3,146.9Zm-53.69-34.77.39.05a3.49,3.49,0,0,0,1.64-.31c1.39-.6,3.6-1.66,5.73-2.69,1.71-.82,3.4-1.64,4.65-2.2,1.6-.78,2.48-1.63,2.76-2.69a1.92,1.92,0,0,0-.18-1.55,2.13,2.13,0,0,0-1.44-.91,3.37,3.37,0,0,0-.89,0l-.36,0-.22.06c-.58.28-1.21.62-1.74.9l-.83.43c-1.91,1-4.32,2.2-6.87,3.42L119.66,108a2.6,2.6,0,0,0-1.39,1.68,2.21,2.21,0,0,0,.28,1.73A1.59,1.59,0,0,0,119.61,112.13Zm27.2,35.56c.4,0,.8,0,1.22,0,6.86-.19,11.7-5.71,11.81-7.9a2.6,2.6,0,0,0-.64-2,2,2,0,0,0-1.52-.59,2.68,2.68,0,0,0-2.21,1.48,8.63,8.63,0,0,1-7,4.32,4.44,4.44,0,0,1-3.4-1.24c-1.15-1.18-1.65-3.17-1.5-5.92.33-6.24,4.41-15.35,10.9-15.53a2.64,2.64,0,0,1,2.51,1.34,2.46,2.46,0,0,0,2.12,1.17,2.58,2.58,0,0,0,2.52-2.53,3.59,3.59,0,0,0-.23-1.45c-.58-1.66-2.17-3.61-6.48-3.48-9.2.25-15.94,10.82-16.47,20.53-.22,4.11.68,7.24,2.67,9.3A8.6,8.6,0,0,0,146.81,147.69Zm-13.49-5.29a2.57,2.57,0,0,0-.66-2,2.13,2.13,0,0,0-1.59-.63,2.45,2.45,0,0,0-1.88.95,8.31,8.31,0,0,1-5.92,2.88,5.93,5.93,0,0,1-4.59-1.55c-1.67-1.72-1.78-4.51-1.7-6,.49-9,6.71-14.71,11-14.83a3,3,0,0,1,2.26.7,2.06,2.06,0,0,1,.52,1.6c-.2,3.65-4.51,6.11-8.42,6.3a2.81,2.81,0,0,0-2.56,2.54,2.2,2.2,0,0,0,.6,1.71,2.39,2.39,0,0,0,1.83.69c5.27-.14,13.27-3.83,13.67-11.29a6.83,6.83,0,0,0-1.72-5.21,7.58,7.58,0,0,0-5.92-2c-7.24.19-15.73,8.38-16.35,19.82-.21,4,.79,7.2,2.91,9.38a10,10,0,0,0,6.65,2.88,11.3,11.3,0,0,0,1.43,0C128.26,148.26,133.2,144.56,133.32,142.4Z"/><path class="cls-8" d="M224.34,155.07c-1.08,0-1.88,0-2.44,0,.23-.89.83-3,1.28-4.26a1.21,1.21,0,0,0,.09-.44c0-.48-.37-.78-.89-.76a1.08,1.08,0,0,0-.83.68c-.49,1.62-1,3.48-1.41,4.82-1.44.1-3.13.22-3.17,1.34,0,.44.26.67.54.66.56,0,1-.25,2.17-.3a30.13,30.13,0,0,0-1.26,7.25c-.11,3.08.79,4.67,2.78,4.9l.28,0a1,1,0,0,0,.91-1,.75.75,0,0,0-.77-.8c-.4-.07-1.55-.21-1.44-3.37a28.81,28.81,0,0,1,1.34-7.18c.76,0,2.12,0,2.88,0a.81.81,0,0,0,.79-.83C225.21,155.43,224.78,155.13,224.34,155.07Zm-14.59,6.57a1,1,0,0,0-.92.93.76.76,0,0,0,.86.8c2.36-.11,5.74-1.82,5.85-5,.06-1.6-.85-3-3.25-2.92-3.16.14-6.82,3.82-7,8.86-.12,3.41,1.77,5.36,4.81,5.22,2.45-.11,4.43-1.8,4.45-2.56,0-.52-.28-.91-.76-.88a.88.88,0,0,0-.66.34,4,4,0,0,1-2.85,1.45c-2.88.13-3.24-2.29-3.19-3.65.16-4.28,3.1-7,5.1-7.06,1-.05,1.58.49,1.55,1.29C213.68,160.27,211.63,161.52,209.75,161.64Zm22.6-7.19a4.22,4.22,0,0,0-4.07,4.1,3,3,0,0,0,3.41,3.21c1,0,1.1-.69,1.11-.93a.81.81,0,0,0-.89-.84c-.68,0-1.88.08-1.82-1.52a2.25,2.25,0,0,1,2.12-2.33c1.92-.09,2.48,2,2.43,3.64-.13,3.41-2.11,7.29-5,7.42-2,.1-2.8-2.31-2.72-4.39a8.68,8.68,0,0,1,.45-2.58,1.17,1.17,0,0,0,.1-.4.8.8,0,0,0-.81-.84,1,1,0,0,0-.87.68,9.4,9.4,0,0,0-.67,3.26c-.14,3.73,1.61,6.08,4.38,6,4.08-.19,6.77-4.91,6.93-9.19C236.56,156.5,235,154.33,232.35,154.45Zm24,4.37c-1.57-.89-1.92-1.35-1.89-2.11a2,2,0,0,1,2.07-1.94,1.71,1.71,0,0,1,1.68,1.21.73.73,0,0,0,.7.48,1,1,0,0,0,.95-1c0-.68-.83-2.36-3.23-2.25a3.86,3.86,0,0,0-3.93,3.54c-.07,2,1.53,3,2.79,3.63,1.77.87,2.21,2,2.17,2.93a3,3,0,0,1-3.06,2.78c-1.44.06-2.57-.84-2.53-1.8,0-.56.24-1.17,1-1.21a3.09,3.09,0,0,1,.64.09.77.77,0,0,0,.83-.79c0-.8-.69-1-1.41-1a3.06,3.06,0,0,0-2.87,3c-.07,2,2,3.23,4.25,3.12,3-.14,4.87-2.06,5-4.54C259.56,161,258.28,159.89,256.36,158.82Zm-10.69-4.51c-1.81.09-3.41,1.44-4.58,4,.24-2.41-.79-3.84-1.59-3.81a1,1,0,0,0-.91.88,1.19,1.19,0,0,0,.18.64,3,3,0,0,1,.63,2.36,26.79,26.79,0,0,1-1,5c-.18.64-1,3.6-1,4.08a.76.76,0,0,0,.8.88.92.92,0,0,0,.87-.72c1.52-6.66,4.25-11.3,6.41-11.4,1,0,1.39,1.46,1.31,3.58a36.5,36.5,0,0,1-1.13,7.08.25.25,0,0,0-.05.16.82.82,0,0,0,.89.88.92.92,0,0,0,.91-.84,40.15,40.15,0,0,0,1.18-7.36C248.73,154.73,246.59,154.27,245.67,154.31Zm-45.75,1.36h-.39c-4.53.21-8.25,6.93-8.67,16.34-2.22.66-3.33,2.39-3.36,3.31,0,.41.19.75.61.77h.08c.36,0,.73-.24.78-.48a3,3,0,0,1,1.83-1.88c-.14,4.74,1.44,8.44,4.39,8.57h.34c2-.09,3.41-1.43,3.51-4.15a6.07,6.07,0,0,0-5.76-6.5c-.21,0-.43,0-.65,0,.45-8,3.63-14.11,6.84-14.26h.16c1.78.08,2.13,2.81,2.09,4.05-.15,4.21-1.72,6.56-3.56,6.64H198a1.72,1.72,0,0,1-1.49-1.24.85.85,0,0,0-.7-.41h-.09a1,1,0,0,0-.91.92,3,3,0,0,0,2.93,2.41,2.41,2.41,0,0,0,.38,0c2.72-.12,5.23-3,5.42-8.4C203.64,158.13,202.42,155.78,199.92,155.67Zm-6.79,17.65c2.7.12,4.19,2.59,4.1,5,0,1.48-.52,2.38-1.69,2.44h-.11c-1.45-.07-3-2.55-2.86-7.38A3.51,3.51,0,0,1,193.13,173.32Zm1.81,5.34h0s0,0,0,0Z"/><path class="cls-9" d="M96.51,159.33A12.94,12.94,0,0,1,95,159.2c.07-.84.08-5.48-1.93-7.38a3,3,0,0,0-2.28-.9,3.8,3.8,0,0,0-3.38,3.79c-.11,2.88,2.41,5.25,5.74,6-.34,7.29-2.19,14.25-5.56,14.4-1.64.08-2.65-1.76-2.56-4.48.11-3,1.78-6,3.87-6.13a1.49,1.49,0,0,1,1.3.54.8.8,0,0,0,.74.41,1,1,0,0,0,.91-.92c0-.76-1.21-1.91-2.89-1.83-3.32.15-5.55,4.29-5.69,8s1.74,6.16,4.22,6a4.71,4.71,0,0,0,3.18-1.5c2.82-2.85,4-9.21,4.23-14.34a7.07,7.07,0,0,0,1.56.09,1,1,0,0,0,.75-.87C97.26,159.62,97,159.39,96.51,159.33Zm-7.27-4.74c0-.8.51-1.94,1.43-2s2.79,1.51,2.62,6.31C90.9,158.39,89.17,156.59,89.24,154.59Z"/><path class="cls-9" d="M101.14,167.44a1,1,0,0,0-.91.92.76.76,0,0,0,.85.8c2.37-.11,5.75-1.82,5.86-5,.06-1.61-.85-3-3.25-2.93-3.17.14-6.82,3.82-7,8.87-.12,3.4,1.76,5.35,4.81,5.21,2.44-.11,4.42-1.8,4.45-2.56a.75.75,0,0,0-.77-.88.84.84,0,0,0-.65.35,4,4,0,0,1-2.85,1.44c-2.89.14-3.24-2.29-3.19-3.65.16-4.28,3.09-7,5.1-7.06,1-.05,1.58.49,1.55,1.29C105.07,166.06,103,167.31,101.14,167.44Z"/><path class="cls-9" d="M114.25,162.15a1.71,1.71,0,0,1,1.68,1.2.73.73,0,0,0,.7.49,1,1,0,0,0,1-1c0-.68-.83-2.36-3.23-2.25a3.86,3.86,0,0,0-3.93,3.53c-.07,2,1.53,3,2.79,3.63,1.77.88,2.21,2,2.17,2.94a3,3,0,0,1-3.06,2.78c-1.44.06-2.57-.85-2.53-1.81,0-.56.24-1.17,1-1.2a3.09,3.09,0,0,1,.64.09.76.76,0,0,0,.82-.8c0-.8-.68-1-1.4-1a3.06,3.06,0,0,0-2.87,3c-.07,2,2,3.22,4.25,3.12,3-.14,4.87-2.06,5-4.54.08-2-1.2-3.14-3.12-4.22-1.57-.88-1.92-1.35-1.89-2.11A2,2,0,0,1,114.25,162.15Z"/><path class="cls-10" d="M142.63,165.7a1,1,0,0,0-.91.92.75.75,0,0,0,.85.8c2.36-.1,5.74-1.82,5.86-5,0-1.6-.85-3-3.26-2.93-3.16.15-6.81,3.83-7,8.87-.12,3.41,1.77,5.36,4.81,5.22,2.45-.11,4.43-1.8,4.45-2.56,0-.52-.28-.91-.76-.89a.92.92,0,0,0-.66.35,4,4,0,0,1-2.85,1.45c-2.88.13-3.23-2.29-3.18-3.65.15-4.28,3.09-7,5.09-7.06,1-.05,1.58.48,1.55,1.28C146.56,164.32,144.51,165.58,142.63,165.7Zm14.59-6.58c-1.08,0-1.88,0-2.44,0,.24-.89.83-3,1.28-4.26a1.21,1.21,0,0,0,.09-.44c0-.48-.37-.78-.89-.76a1.05,1.05,0,0,0-.82.68c-.5,1.62-1.05,3.48-1.42,4.82-1.44.1-3.12.22-3.16,1.34,0,.44.25.67.53.65.56,0,1-.24,2.17-.3a30.21,30.21,0,0,0-1.26,7.25c-.11,3.09.79,4.68,2.78,4.91l.28,0a1,1,0,0,0,.91-1,.76.76,0,0,0-.77-.81c-.39-.06-1.55-.2-1.43-3.37a27.94,27.94,0,0,1,1.34-7.17c.75,0,2.11,0,2.88,0a.83.83,0,0,0,.79-.84C158.09,159.48,157.66,159.18,157.22,159.12Zm5.49-.09a1,1,0,0,0-1.11.69,85.46,85.46,0,0,0-2.24,12.33.82.82,0,0,0,.88.88,1,1,0,0,0,.92-.88,80.35,80.35,0,0,1,2.15-12,.49.49,0,0,0,0-.21A.85.85,0,0,0,162.71,159Zm-30.67,1c-4.53.21-8.25,6.93-8.67,16.34-2.23.66-3.33,2.39-3.36,3.31,0,.44.21.79.69.77s.73-.24.78-.48a3,3,0,0,1,1.82-1.88c-.13,4.92,1.57,8.72,4.73,8.58,2-.1,3.41-1.44,3.51-4.16a6.06,6.06,0,0,0-6.4-6.5c.45-8,3.63-14.11,6.83-14.26,1.93-.08,2.3,2.78,2.26,4.06-.16,4.2-1.72,6.55-3.56,6.63a1.7,1.7,0,0,1-1.68-1.24.83.83,0,0,0-.78-.4,1,1,0,0,0-.92.92,3,3,0,0,0,3.32,2.4c2.72-.12,5.22-3,5.42-8.4C136.15,162.36,134.8,160,132,160.07Zm-2.3,22.6c-.05,1.48-.53,2.38-1.69,2.44-1.48.06-3.11-2.42-3-7.38C128.13,177.51,129.83,180.15,129.74,182.67Zm50.63-23.32a1.71,1.71,0,0,1,1.68,1.2.73.73,0,0,0,.7.49,1,1,0,0,0,.95-1c0-.69-.83-2.36-3.23-2.25a3.86,3.86,0,0,0-3.93,3.53c-.07,2,1.53,3,2.79,3.63,1.76.88,2.2,2,2.17,2.94a3,3,0,0,1-3.06,2.77c-1.44.07-2.57-.84-2.53-1.8,0-.56.24-1.17,1-1.2a2.53,2.53,0,0,1,.64.09.77.77,0,0,0,.82-.8c0-.8-.68-1-1.4-1a3.06,3.06,0,0,0-2.87,3c-.07,2,2,3.23,4.25,3.13,3-.14,4.87-2.06,5-4.55.07-2-1.21-3.14-3.13-4.21-1.56-.89-1.91-1.35-1.88-2.11A2,2,0,0,1,180.37,159.35Zm-6.92-1c-1.08,0-1.88,0-2.44,0,.23-.89.83-3,1.27-4.26a1.43,1.43,0,0,0,.1-.44.77.77,0,0,0-.9-.76,1.05,1.05,0,0,0-.82.68c-.5,1.62-1,3.48-1.41,4.82-1.45.1-3.13.22-3.17,1.34,0,.44.25.67.53.65.56,0,1-.24,2.17-.29a30.05,30.05,0,0,0-1.26,7.25c-.11,3.08.79,4.67,2.78,4.9l.28,0a1.06,1.06,0,0,0,.92-1,.76.76,0,0,0-.77-.8c-.4-.07-1.56-.21-1.44-3.38a27.94,27.94,0,0,1,1.34-7.17c.76,0,2.12,0,2.88,0a.82.82,0,0,0,.79-.83A.89.89,0,0,0,173.45,158.38Zm-7-4.92a1,1,0,0,0-.69-.77l-.06,0-.82-.28-.24-.83a1.09,1.09,0,0,0-.6-.75,1,1,0,0,0-1.1.44l-.52.7-.86,0a1,1,0,0,0-1,.46,1,1,0,0,0,.16,1.07l.5.7-.3.81a.91.91,0,0,0,.43,1.27,1.2,1.2,0,0,0,.77,0l.82-.26.68.53a1.57,1.57,0,0,0,.37.21.81.81,0,0,0,.79-.07,1,1,0,0,0,.4-.89v-.87l.72-.48A1,1,0,0,0,166.41,153.46Z"/><path class="cls-7" d="M108.75,95.56a16.82,16.82,0,0,1,.18,5.38c-.9,6.92-6.16,14.53-12.26,14.41a8.89,8.89,0,0,1-4.77-1.7,18.16,18.16,0,0,0,3.9-2.12c3.61-2.57,5.57-8.61,5.57-8.61A21.19,21.19,0,0,1,96,109a14.31,14.31,0,0,1-5,2.6l-.49.12A23.78,23.78,0,0,1,100.6,98.5,22.39,22.39,0,0,1,108.75,95.56Z"/><path class="cls-11" d="M214.17,96a2.14,2.14,0,0,0,3.92,1.17,7.3,7.3,0,0,0,12.63,4.54,4.29,4.29,0,0,0,7-.77,7.29,7.29,0,0,0,12.12-3,4.31,4.31,0,0,0,7.13-2.53,4.07,4.07,0,0,0,1.4.23,4.22,4.22,0,0,0-.07-8.43,5.51,5.51,0,0,0-.71.07,8.49,8.49,0,0,0,.05-.88c0-3.8-2.94-7.92-6.72-8.19a8,8,0,0,0-4.73,1.25c-1.54-4.17-5.47-5.33-10.16-5.29a10.82,10.82,0,0,0-9.56,6,5.52,5.52,0,0,0-2.56-.6,5.58,5.58,0,0,0-5.52,5.63,5.41,5.41,0,0,0,.17,1.34,3.14,3.14,0,0,0-.54,0,4.28,4.28,0,0,0-2.63,7.63A2.13,2.13,0,0,0,214.17,96Z"/><path class="cls-12" d="M136.11,62.43c-.05.27-.09.53-.12.8-4.54,3.25-8.88,6.87-11.8,11.52-3.81,6.11-5.36,13.48-6.63,20.39-.48,2.59-.87,6-1.19,8.66L113.32,105a154,154,0,0,1,4.43-21.32,44.71,44.71,0,0,1,3.82-9.78,25.16,25.16,0,0,1,2.89-4.26,51,51,0,0,1,4.27-3.88A50.11,50.11,0,0,1,136,60.53a12.59,12.59,0,0,0,.08,1.37C136.06,62.08,136.09,62.26,136.11,62.43Z"/><path class="cls-12" d="M235.27,74.24a10.33,10.33,0,0,0-2.11.34c-.28-.44-.54-.89-.83-1.33a32.39,32.39,0,0,0-6.77-7.41,95.91,95.91,0,0,0-8.29-5.64c-2.86-1.8-5.57-3.89-8.62-5.41a35.56,35.56,0,0,0-10.41-3.26c-1.48-.23-3-.41-4.48-.56a17.72,17.72,0,0,0-1.16-2c5.87.56,11.66,1.45,17,4.11a101.6,101.6,0,0,1,9.08,5.7,82.71,82.71,0,0,1,8.7,6A35.52,35.52,0,0,1,235.27,74.24Z"/><path class="cls-13" d="M258.26,87.21a5.51,5.51,0,0,0-.71.07,8.49,8.49,0,0,0,.05-.88A8.94,8.94,0,0,0,253.38,79C250,89.43,236.17,97.82,218.7,99.68a7.28,7.28,0,0,0,12,2.06,4.29,4.29,0,0,0,7-.77,7.29,7.29,0,0,0,12.12-3,4.31,4.31,0,0,0,7.13-2.53,4.07,4.07,0,0,0,1.4.23,4.22,4.22,0,0,0-.07-8.43Z"/><path class="cls-14" d="M176.69,89.63a31.35,31.35,0,0,0,3.37-1.71,26,26,0,0,0,2.76-1.9l1.17-.59a28.54,28.54,0,0,0,6.08-4.34,31.69,31.69,0,0,0,2.55-2.76,25.15,25.15,0,0,0,2.07-2.87A24.83,24.83,0,0,0,197.54,69a23,23,0,0,0,.69-3.46,20.08,20.08,0,0,0,.08-3.55,15.05,15.05,0,0,0-1.54-5.71c-.12-.25-.25-.5-.38-.74a16.78,16.78,0,0,0-1.8-2.66,20.47,20.47,0,0,0-2-4,20.84,20.84,0,0,0-2.13-2.73,23.55,23.55,0,0,0-2.62-2.38,28.65,28.65,0,0,0-5.63-3.5A30.65,30.65,0,0,0,175.73,38a2.71,2.71,0,0,0-.41-.09,4.05,4.05,0,0,0-.47-.12,30.51,30.51,0,0,0-3.46-.61,28.52,28.52,0,0,0-3.34-.19,34.11,34.11,0,0,0-7.16.77,31.34,31.34,0,0,0-7,2.34,33,33,0,0,0-4.81,2.79h0a21.72,21.72,0,0,0-3.38,1.6,23.87,23.87,0,0,0-2.94,2.06A19.77,19.77,0,0,0,140.33,49a16.59,16.59,0,0,0-2,2.84,18.67,18.67,0,0,0-2.23,6.7,15.37,15.37,0,0,0,0,3.39l.06.54c-.12.66-.21,1.32-.28,2a22.44,22.44,0,0,0,0,3.38A26.56,26.56,0,0,0,137,74.15a25.61,25.61,0,0,0,2.87,6.21,26.33,26.33,0,0,0,2,2.77,17.89,17.89,0,0,0,1.41,1.48c.16.27.33.52.52.78a13,13,0,0,0,2.22,2.35,17.24,17.24,0,0,0,2.78,1.93A20.77,20.77,0,0,0,152,91a28.93,28.93,0,0,0,6.71,1.42,38.19,38.19,0,0,0,7,0A35.85,35.85,0,0,0,173.08,91,36.57,36.57,0,0,0,176.69,89.63Z"/><path class="cls-14" d="M204.92,40.5a1.74,1.74,0,0,0,0-.39,1.45,1.45,0,0,0-.34-.65,1.06,1.06,0,0,0-.89-.36,21.21,21.21,0,0,0-3.58,1.06c-1.21.43-2.42.89-3.63,1.33a1.82,1.82,0,0,0-1,2,1.24,1.24,0,0,0,1.66,1l3.58-1.33,1.49-.55c.59-.21,1.17-.43,1.76-.58a1.45,1.45,0,0,0,.58-.45A1.88,1.88,0,0,0,204.92,40.5Z"/><path class="cls-14" d="M200.2,77.27a5.06,5.06,0,0,1,.85.22,7.79,7.79,0,0,1,1.43.93l.62.54a8,8,0,0,1,1,1l.21.33a.83.83,0,0,0,1.24.33,1.22,1.22,0,0,0,.26-1.48l0-.07a6.46,6.46,0,0,0-.63-1A8.57,8.57,0,0,0,204,77a12.12,12.12,0,0,0-1.33-1.06,5.45,5.45,0,0,0-2.1-.87.85.85,0,0,0-.7.16,1.11,1.11,0,0,0-.41.7A1.17,1.17,0,0,0,200.2,77.27Z"/><path class="cls-14" d="M194.94,84.34a.58.58,0,0,0-.93,0,.9.9,0,0,0,0,1.11l2.73,3.5c.37.48.75,1,1.13,1.43s.86,1.1,1.27,1.68a.51.51,0,0,0,.7.12.69.69,0,0,0,.27-.42.82.82,0,0,0,0-.49.08.08,0,0,1,0,0c-.39-.64-.83-1.23-1.27-1.83s-.75-1-1.12-1.51C196.77,86.69,195.85,85.52,194.94,84.34Z"/><path class="cls-14" d="M189.61,98.23c0-.15,0-.31,0-.46s-.07-.22-.11-.33l-.07-.18,0-.07c-.11-.24-.24-.47-.37-.7s-.2-.37-.31-.55l-.55-1-1.65-2.85c0-.08-.09-.15-.13-.22a.89.89,0,0,0-.38-.27.72.72,0,0,0-.65.09,1,1,0,0,0-.41.61,1.19,1.19,0,0,0,.08.79l1.63,2.8.48.82.31.53.3.5a5.82,5.82,0,0,1,.34.6s0,0,0,.08a.85.85,0,0,0,.76.72.71.71,0,0,0,.57-.27A1.06,1.06,0,0,0,189.61,98.23Z"/><path class="cls-14" d="M177.91,101.41c0-.19-.07-.38-.1-.56s-.07-.4-.12-.6c-.1-.4-.2-.8-.31-1.2-.17-.6-.35-1.2-.53-1.8,0-.1-.06-.2-.1-.3a1,1,0,0,0-.17-.27.93.93,0,0,0-1-.34,1.08,1.08,0,0,0-.65.58,1.42,1.42,0,0,0-.1.93c.29,1,.57,2,.84,3,.09.35.18.7.28,1.06s.25.94.36,1.42a1,1,0,0,0,.86.81,1,1,0,0,0,.9-1.06A14.94,14.94,0,0,0,177.91,101.41Z"/><path class="cls-14" d="M165.13,104.51l-.06-1.25c0-1-.12-1.91-.18-2.87a.75.75,0,0,0-.18-.48.51.51,0,0,0-.4-.2.52.52,0,0,0-.4.21.74.74,0,0,0-.17.48l.21,2.83c0,.41.07.83.1,1.24s.06.76.06,1.14a.59.59,0,0,0,.38.58.43.43,0,0,0,.38-.06.62.62,0,0,0,.23-.37A8.7,8.7,0,0,0,165.13,104.51Z"/><path class="cls-14" d="M153.4,103.57l.57-1.42,1.26-3.25a1,1,0,0,0,0-.84.75.75,0,0,0-.28-.28.7.7,0,0,0-1,.45c-.41,1.06-.83,2.13-1.23,3.21s-.7,1.89-1.06,2.83a.83.83,0,0,0,.3,1,.53.53,0,0,0,.49,0,.77.77,0,0,0,.38-.41C153,104.47,153.22,104,153.4,103.57Z"/><path class="cls-14" d="M144.66,99.28q.39-.54.81-1.08a6.93,6.93,0,0,1,.81-.9l.27-.16.13,0a.94.94,0,0,0,.6-.46,1.26,1.26,0,0,0,.18-.76,1.1,1.1,0,0,0-.06-.26.87.87,0,0,0-.28-.39.78.78,0,0,0-.64-.13,1.69,1.69,0,0,0-.52.18,2.21,2.21,0,0,0-.44.26,3.64,3.64,0,0,0-.48.4,3.89,3.89,0,0,0-.38.43c-.38.45-.74.92-1.09,1.41a9.44,9.44,0,0,0-.93,1.48l-.11.23a1.06,1.06,0,0,0-.06.5.88.88,0,0,0,.32.63.72.72,0,0,0,.62.12.91.91,0,0,0,.57-.44A10.18,10.18,0,0,1,144.66,99.28Z"/><path class="cls-14" d="M124.1,82.62l.06,0,0,0Zm.24-.12h0Z"/><path class="cls-14" d="M135.81,45l-.21-.34a1.35,1.35,0,0,0-.6-.41L132.08,43c-.64-.27-1.28-.52-1.92-.77A28.52,28.52,0,0,0,126,40.9a1.14,1.14,0,0,0-.92.13,1.5,1.5,0,0,0-.57.9,1.57,1.57,0,0,0,.89,1.8c.73.25,1.45.53,2.17.81l1.93.71c.64.25,1.29.5,1.92.77,1,.41,2,.82,2.93,1.25a1.06,1.06,0,0,0,1-.15,1.54,1.54,0,0,0,.61-.95A1.85,1.85,0,0,0,135.81,45Z"/><path class="cls-14" d="M139,38.25a10.22,10.22,0,0,1,1.07,1.11,4.19,4.19,0,0,1,.39.76.87.87,0,0,1,.07.17,1.17,1.17,0,0,0,.49.65.81.81,0,0,0,.71.06,1,1,0,0,0,.53-.57,1.27,1.27,0,0,0,0-.84,10.72,10.72,0,0,0-.57-1.29,5.27,5.27,0,0,0-.52-.72c-.14-.17-.29-.33-.44-.49l-.1-.1a25.17,25.17,0,0,0-2.42-2.09q-.83-.66-1.68-1.29a17.68,17.68,0,0,0-1.91-1.28.87.87,0,0,0-1.25.52,1.27,1.27,0,0,0,.46,1.51c.67.4,1.31.89,1.95,1.36s1.43,1.06,2.13,1.61C138.31,37.62,138.67,37.92,139,38.25Z"/><path class="cls-14" d="M146.26,30.57c.38.55.77,1.09,1.11,1.67a11.29,11.29,0,0,1,.76,1.61l.06.3a4.9,4.9,0,0,1,0,.54,4.15,4.15,0,0,1-.11.48,1.25,1.25,0,0,0,.63,1.45.92.92,0,0,0,1.2-.72A6.51,6.51,0,0,0,150,35a4.2,4.2,0,0,0,.05-.87,5.23,5.23,0,0,0-.55-2,13.56,13.56,0,0,0-1-1.76c-.28-.45-.59-.87-.89-1.3l-.51-.73-.33-.47-.53-.67c-.1-.14-.22-.26-.33-.39a4.44,4.44,0,0,0-.58-.57l-.15-.11a.84.84,0,0,0-.69-.17.91.91,0,0,0-.58.46,1.26,1.26,0,0,0,.28,1.53l.21.18a15.7,15.7,0,0,1,1.14,1.51Z"/><path class="cls-14" d="M126.21,56.78c.56-.2,1.11-.43,1.68-.58a6.54,6.54,0,0,1,1.52-.2,1.11,1.11,0,0,1,.25,0,2.42,2.42,0,0,1,.4.25,2.45,2.45,0,0,1,.34.31.86.86,0,0,0,1.34-.13,1.31,1.31,0,0,0-.14-1.61,4.77,4.77,0,0,0-.64-.55,3,3,0,0,0-.66-.4,3.23,3.23,0,0,0-1.74-.17,10.12,10.12,0,0,0-1.7.37c-.44.14-.88.31-1.31.48l-.75.28-.48.19-.7.31-.42.22a4.48,4.48,0,0,0-.64.43l-.14.11a1.2,1.2,0,0,0-.37.71,1.33,1.33,0,0,0,.16.83.85.85,0,0,0,1.29.29,1.56,1.56,0,0,1,.2-.16,12.08,12.08,0,0,1,1.57-.69Z"/><path class="cls-14" d="M157.69,30.12,157,27.34c0-.15-.09-.3-.13-.45-.15-.47-.29-.95-.43-1.42-.21-.66-.4-1.33-.61-2L155,20.77c-.14-.44-.28-.87-.41-1.31s-.28-.91-.39-1.38l0-.09,0-.19a.77.77,0,0,0-.19-.31.71.71,0,0,0-.14-.1.51.51,0,0,0-.32-.06.56.56,0,0,0-.4.26.76.76,0,0,0-.13.55c.09.46.21.91.34,1.35l.33,1c.24.73.48,1.46.73,2.2.52,1.58,1,3.17,1.52,4.76.06.2.12.4.17.6l.48,1.79c.15.58.31,1.16.46,1.73s.34,1.4.5,2.11a.61.61,0,0,0,.3.36.48.48,0,0,0,.42,0,.62.62,0,0,0,.3-.35.85.85,0,0,0,0-.5c-.15-.63-.28-1.27-.45-1.89C157.91,30.94,157.8,30.53,157.69,30.12Z"/><path class="cls-14" d="M166.08,31.5a1.15,1.15,0,0,0,1-1.25c0-1.28-.11-2.55-.18-3.83,0-.77-.09-1.55-.15-2.32s-.16-1.82-.23-2.73c0-.5-.07-1-.11-1.49,0-.25,0-.51,0-.77a9.61,9.61,0,0,1,0-1.2,1.26,1.26,0,0,0-.31-.85.93.93,0,0,0-.47-.32.87.87,0,0,0-.75.11,1.14,1.14,0,0,0-.47.75,19,19,0,0,0,0,3.61c.07.93.15,1.86.23,2.8.18,2.07.28,4.15.35,6.23A1.22,1.22,0,0,0,166.08,31.5Z"/><path class="cls-14" d="M175.36,24.19c-.15.78-.26,1.57-.39,2.36-.21,1.29-.41,2.58-.61,3.87a1.25,1.25,0,0,0,.81,1.42,1,1,0,0,0,1.17-.93c.19-1.26.39-2.52.59-3.78.13-.81.25-1.61.38-2.41l.45-2.57c.16-.9.3-1.82.53-2.7a1.48,1.48,0,0,0,0-.55,1.12,1.12,0,0,0-.11-.25,1,1,0,0,0-.36-.38.82.82,0,0,0-1.19.49,20.58,20.58,0,0,0-.72,2.83C175.68,22.45,175.52,23.32,175.36,24.19Z"/><path class="cls-14" d="M185.51,25.1l-.69,1.57-2.06,4.91a1.4,1.4,0,0,0,.5,1.66,1,1,0,0,0,1.36-.56L186.57,28c.17-.39.33-.79.5-1.18.32-.77.63-1.55,1-2.28a4.36,4.36,0,0,1,.46-.69,1.11,1.11,0,0,0,.36-.67,1.29,1.29,0,0,0-.14-.82,1,1,0,0,0-.58-.47.84.84,0,0,0-.68.16,3.57,3.57,0,0,0-.84.85,7.94,7.94,0,0,0-.66,1.13C185.82,24.41,185.66,24.75,185.51,25.1Z"/><path class="cls-14" d="M195.35,29.4c-.19.19-.37.39-.56.57l-.67.66-1.05,1-3.56,3.57a1.67,1.67,0,0,0-.16,2,1.07,1.07,0,0,0,1.69.13c1.16-1.17,2.32-2.33,3.47-3.5.31-.3.61-.61.91-.91l.32-.33a1,1,0,0,0,1.27-.48,10.51,10.51,0,0,0,.8-1.77,1.58,1.58,0,0,0,0-1,1.82,1.82,0,0,0-.16-.31,1.15,1.15,0,0,0-.47-.38.89.89,0,0,0-.58-.05,2.24,2.24,0,0,0-.64.27A5.37,5.37,0,0,0,195.35,29.4Z"/><g class="cls-15"><path class="cls-16" d="M145.48,52.33c.06,1.1.14,2.08.23,2.94a27.44,27.44,0,0,1,.16,5.34c-.08.71-.05,1.15.11,1.29s.59.17,1.34.09l.65-.05a6.8,6.8,0,0,0,1.74-.28.92.92,0,0,1,1.31.2,1,1,0,0,1,.18.71,1,1,0,0,1-.36.63c-.28.14-.51.25-.68.32a3.19,3.19,0,0,1-.55.16l-.75.11a6.78,6.78,0,0,1-3.8-.2c-.81-.41-1.17-1.47-1-3.19a28.09,28.09,0,0,0-.16-5c-.1-1-.17-2.09-.22-3.31a.91.91,0,0,1,1.06-.8.88.88,0,0,1,.61.38A1,1,0,0,1,145.48,52.33Z"/><path class="cls-16" d="M151.7,53c-.61-.28-.92-.6-.92-1a.94.94,0,0,1,.48-.86,1.22,1.22,0,0,1,1.12-.14c.42.12.74.55,1,1.24q.56,2-1.41,2.16a.6.6,0,0,1-.44-.14.56.56,0,0,1-.2-.4.6.6,0,0,1,.13-.43.62.62,0,0,1,.41-.22h.07l.17,0,.18,0a1,1,0,0,0,0-.3A.58.58,0,0,1,151.7,53Z"/><path class="cls-16" d="M156.75,60.28a2.28,2.28,0,0,0,1.27,1,3.22,3.22,0,0,0,1.53.11,1.62,1.62,0,0,0,1-.55v0a0,0,0,0,0,0,0h0a.84.84,0,0,1,.17-.62.86.86,0,0,1,.56-.3.82.82,0,0,1,.61.18.78.78,0,0,1,.3.56,2.24,2.24,0,0,1-1.54,2.14,5.23,5.23,0,0,1-2.84.22,3.7,3.7,0,0,1-2-1.15,4,4,0,0,1-1-2.07,3.62,3.62,0,0,1,.78-3.16,4.1,4.1,0,0,1,2.53-1.24,3.68,3.68,0,0,1,2.47.49,1.64,1.64,0,0,1,.63,2,3.26,3.26,0,0,1-1.84,1.65A14.68,14.68,0,0,1,156.75,60.28Zm-.32-1.62c.34-.1.77-.21,1.28-.38a9.19,9.19,0,0,0,1.36-.53c.4-.2.6-.39.6-.58s-.42-.22-.91-.24a2.84,2.84,0,0,0-1.44.35A1.76,1.76,0,0,0,156.43,58.66Zm.87-4.16a1.3,1.3,0,0,0,.7-.19,2,2,0,0,0,.45-.43,3.75,3.75,0,0,1,.34-.36.91.91,0,0,0,.4-.35.86.86,0,0,0,.11-.53.83.83,0,0,0-.31-.55.84.84,0,0,0-.62-.17,1.58,1.58,0,0,0-.58.26,1.34,1.34,0,0,0-.31.32,3.81,3.81,0,0,1-.35.37.84.84,0,0,0-.56.71.77.77,0,0,0,.18.61A.87.87,0,0,0,157.3,54.5Z"/><path class="cls-16" d="M163.71,53.64c.24.71.51,1.41.82,2.1a16.35,16.35,0,0,1,1,2.76,5.8,5.8,0,0,1,.14.79c0,.15.06.26.08.36a1.81,1.81,0,0,0,.15.33l.38.52a6.4,6.4,0,0,0,.89-1.87c.26-.86.5-1.72.69-2.59s.33-1.56.39-2a.84.84,0,0,1,.14-.62.82.82,0,0,1,.54-.35.83.83,0,0,1,.62.13.86.86,0,0,1,.35.55,17.39,17.39,0,0,1-.58,3.54,17.19,17.19,0,0,1-1.21,3.38c-.78,1.44-1.58,2-2.39,1.57A3.71,3.71,0,0,1,164,59.51a17.78,17.78,0,0,0-1.08-3.22,23.64,23.64,0,0,1-.84-2.23.8.8,0,0,1,.09-.64.83.83,0,0,1,1.14-.29A.82.82,0,0,1,163.71,53.64Z"/><path class="cls-16" d="M172.62,58.2a2.28,2.28,0,0,0,1.28,1,3.15,3.15,0,0,0,1.54.11,1.53,1.53,0,0,0,1-.55v0a0,0,0,0,1,0,0h0a.84.84,0,0,1,.17-.62.88.88,0,0,1,.56-.31.84.84,0,0,1,.93.74,2.25,2.25,0,0,1-1.57,2.16,5.19,5.19,0,0,1-2.86.22,3.74,3.74,0,0,1-2-1.15,4.16,4.16,0,0,1-1.05-2.09,3.73,3.73,0,0,1,.79-3.19A4.12,4.12,0,0,1,174,53.21a3.67,3.67,0,0,1,2.49.49,1.63,1.63,0,0,1,.63,2,3.25,3.25,0,0,1-1.85,1.67A13.86,13.86,0,0,1,172.62,58.2Zm-.32-1.64c.35-.08.77-.21,1.29-.37a10.62,10.62,0,0,0,1.37-.53c.4-.21.6-.4.6-.59s-.42-.23-.92-.24a2.9,2.9,0,0,0-1.45.35A1.78,1.78,0,0,0,172.3,56.56Z"/><path class="cls-16" d="M179,49s0-.05.07-.08a.83.83,0,0,1,.6-.22.78.78,0,0,1,.58.26,1.64,1.64,0,0,1,0,2.06,1.39,1.39,0,0,1-1.2.59,1.32,1.32,0,0,1-.92-.61,1.4,1.4,0,0,1-.17-1.11C178.08,49.52,178.42,49.23,179,49Zm1.44,4.07c0,.3.08.85.16,1.68s.15,1.49.23,2.31.14,1.56.19,2.18.07,1,.07,1.11a2.08,2.08,0,0,1-.08.42.41.41,0,0,1-.14.21,1,1,0,0,1-.26.14l-.29.14-.26-.08a1.13,1.13,0,0,1-.44-.19.73.73,0,0,1-.19-.5c-.11-1.21-.22-2.42-.34-3.63s-.21-2.43-.32-3.65a.77.77,0,0,1,.2-.6.8.8,0,0,1,.56-.3.83.83,0,0,1,.62.2A.79.79,0,0,1,180.44,53.1Z"/><path class="cls-16" d="M183.38,49.36c0,.5.06,1.29.08,2.37,0,1.39.06,2.78.12,4.16a7.8,7.8,0,0,0,.4,2.64,1.28,1.28,0,0,0,.6.54,2.1,2.1,0,0,0,.8.07h0a.85.85,0,0,1,.62.2.83.83,0,0,1,.29.57.82.82,0,0,1-.77.91,4.24,4.24,0,0,1-1.88-.33,2.8,2.8,0,0,1-1.29-1.39,9.48,9.48,0,0,1-.46-2.82q-.09-2-.12-4c0-1.15,0-2.06-.09-2.75a.85.85,0,0,1,.2-.61.76.76,0,0,1,.57-.29.82.82,0,0,1,.9.76Z"/><path class="cls-16" d="M143.45,70.57a5.62,5.62,0,0,1,1.46-.89,3.7,3.7,0,0,1,1.78-.14A2.5,2.5,0,0,1,148.56,71a9.19,9.19,0,0,1,.81,2.81,23.52,23.52,0,0,1,.2,2.57v0a.82.82,0,0,1,0,.63.85.85,0,0,1-.43.48.77.77,0,0,1-.63,0,.79.79,0,0,1-.47-.41l0-.09a4.14,4.14,0,0,1-3.46.11c-1.06-.52-1.56-1.2-1.5-2.06a3.18,3.18,0,0,1,1.26-2.27,3.64,3.64,0,0,1,2.87-.77c-.18-.52-.44-.8-.78-.86a2.26,2.26,0,0,0-1.09.1,4,4,0,0,0-.83.55l-.22.17a.79.79,0,0,1-.62.1.92.92,0,0,1-.52-.38.82.82,0,0,1-.09-.63A.86.86,0,0,1,143.45,70.57Zm2.42-1.44a1.22,1.22,0,0,1-.71-.06,1.76,1.76,0,0,1-.52-.35l-.39-.3a.86.86,0,0,1-.46-.27.84.84,0,0,1-.19-.51.84.84,0,0,1,.79-.87,1.56,1.56,0,0,1,.61.16,1.26,1.26,0,0,1,.37.27,4.14,4.14,0,0,0,.4.3.84.84,0,0,1,.68.61.81.81,0,0,1-.08.63A.86.86,0,0,1,145.87,69.13Zm1.93,6c0-.41-.09-.83-.16-1.24a3.71,3.71,0,0,0-1.48-.09,1.84,1.84,0,0,0-1.24.81c-.24.46-.17.8.24,1a2.48,2.48,0,0,0,1.46.19A1.46,1.46,0,0,0,147.8,75.09Z"/><path class="cls-16" d="M155.49,65.26c0,.5.06,1.29.08,2.37q0,2.09.12,4.17a8,8,0,0,0,.4,2.63,1.23,1.23,0,0,0,.6.54,2.1,2.1,0,0,0,.8.07h0a.8.8,0,0,1,.62.2.79.79,0,0,1,.29.56.82.82,0,0,1-.77.91,4.11,4.11,0,0,1-1.88-.32,2.83,2.83,0,0,1-1.29-1.4,9.17,9.17,0,0,1-.45-2.82c-.07-1.31-.11-2.65-.13-4,0-1.16,0-2.07-.09-2.75a.84.84,0,0,1,.2-.61.81.81,0,0,1,.57-.3.77.77,0,0,1,.61.2A.76.76,0,0,1,155.49,65.26Z"/><path class="cls-16" d="M159.16,69.18a5.12,5.12,0,0,1,1.47-.9,3.71,3.71,0,0,1,1.81-.14,2.46,2.46,0,0,1,1.87,1.5,8.78,8.78,0,0,1,.81,2.83,21.84,21.84,0,0,1,.21,2.59v0a.84.84,0,0,1-1,1.16.81.81,0,0,1-.47-.42s0,0,0-.08a4.15,4.15,0,0,1-3.48.1c-1.08-.51-1.59-1.21-1.53-2.08a3.24,3.24,0,0,1,1.27-2.28,3.68,3.68,0,0,1,2.89-.78c-.18-.51-.44-.8-.78-.86a2.16,2.16,0,0,0-1.1.11,2.93,2.93,0,0,0-.83.54l-.22.17a.78.78,0,0,1-.63.1.85.85,0,0,1-.52-.37.81.81,0,0,1-.1-.64A.85.85,0,0,1,159.16,69.18Zm4.39,4.55c0-.42-.1-.83-.16-1.26a3.75,3.75,0,0,0-1.49-.08,1.81,1.81,0,0,0-1.25.81c-.25.47-.17.8.24,1a2.54,2.54,0,0,0,1.48.19A1.46,1.46,0,0,0,163.55,73.73Z"/><path class="cls-16" d="M171.09,66.56c.24.71.51,1.41.82,2.1a15.84,15.84,0,0,1,1,2.77q.12.52.15.78c0,.15.05.26.07.36a1.4,1.4,0,0,0,.16.33l.37.52a6.53,6.53,0,0,0,.89-1.87,26.76,26.76,0,0,0,.69-2.59q.3-1.32.39-2a.84.84,0,0,1,.14-.62.85.85,0,0,1,.54-.35.79.79,0,0,1,.62.14.81.81,0,0,1,.35.54,17.39,17.39,0,0,1-.58,3.54,16.86,16.86,0,0,1-1.21,3.37c-.78,1.45-1.58,2-2.38,1.58a3.65,3.65,0,0,1-1.71-2.69,18.54,18.54,0,0,0-1.09-3.22,21.16,21.16,0,0,1-.84-2.23.83.83,0,0,1,.6-1,.77.77,0,0,1,.63.09A.82.82,0,0,1,171.09,66.56Z"/><path class="cls-16" d="M178.6,62.6l.06-.07a.92.92,0,0,1,.6-.23.83.83,0,0,1,.58.27,1.64,1.64,0,0,1,0,2.06,1.39,1.39,0,0,1-1.2.59,1.3,1.3,0,0,1-.92-.61,1.39,1.39,0,0,1-.18-1.12A1.42,1.42,0,0,1,178.6,62.6ZM180,66.68c0,.3.08.85.16,1.67s.15,1.5.23,2.32.14,1.56.19,2.18a9.51,9.51,0,0,1,.07,1.11,2.24,2.24,0,0,1-.07.42.59.59,0,0,1-.14.21l-.26.14-.29.13-.27-.07a1.13,1.13,0,0,1-.44-.19.79.79,0,0,1-.19-.5c-.11-1.21-.21-2.42-.33-3.63l-.33-3.65a.77.77,0,0,1,.2-.6.82.82,0,0,1,1.18-.1A.79.79,0,0,1,180,66.68Z"/><path class="cls-16" d="M183.53,70.82a2.24,2.24,0,0,0,1.28,1,3.28,3.28,0,0,0,1.54.11,1.55,1.55,0,0,0,1-.55l0,0a0,0,0,0,1,0,0h0a.8.8,0,0,1,.17-.61.85.85,0,0,1,.57-.32.82.82,0,0,1,.61.18.85.85,0,0,1,.31.56,2.25,2.25,0,0,1-1.57,2.16,5.19,5.19,0,0,1-2.86.22,3.74,3.74,0,0,1-2-1.15,4.2,4.2,0,0,1-1-2.09,3.67,3.67,0,0,1,.8-3.18,4,4,0,0,1,2.54-1.25,3.67,3.67,0,0,1,2.49.49,1.63,1.63,0,0,1,.63,2A3.23,3.23,0,0,1,186.19,70,13.86,13.86,0,0,1,183.53,70.82Zm-.32-1.64c.35-.08.77-.21,1.29-.37a10.62,10.62,0,0,0,1.37-.53c.4-.21.6-.4.6-.59s-.42-.23-.92-.24a2.9,2.9,0,0,0-1.45.35A1.78,1.78,0,0,0,183.21,69.18Z"/><path class="cls-16" d="M191.45,70.86a1.59,1.59,0,0,1,1.22,1.08,1,1,0,0,1-.54,1.25,1.81,1.81,0,0,1-1.91-.12,1.55,1.55,0,0,1-.61-1.4c.06-.54.46-.88,1.2-1A1,1,0,0,1,191.45,70.86Zm1.17-9.19c0,.23-.06.56-.12,1-.14,1.06-.29,2.29-.45,3.67a15.94,15.94,0,0,0-.17,2.8.94.94,0,0,1-.22.65.84.84,0,0,1-.6.31.87.87,0,0,1-.64-.21.88.88,0,0,1-.31-.6,18.82,18.82,0,0,1,.19-3.09c.16-1.51.32-2.82.47-3.93,0-.35.08-.63.11-.85a.83.83,0,0,1,.34-.57.88.88,0,0,1,.66-.17.85.85,0,0,1,.58.35A.83.83,0,0,1,192.62,61.67Z"/></g><path class="cls-2" d="M145.51,52.3c.05,1.1.14,2.08.23,2.94a27.48,27.48,0,0,1,.15,5.34c-.08.71,0,1.15.11,1.29s.6.17,1.34.09l.65-.05a6.88,6.88,0,0,0,1.75-.28.91.91,0,0,1,1.3.2,1,1,0,0,1-.17,1.33c-.29.14-.52.26-.69.33a3.08,3.08,0,0,1-.54.16l-.76.11a6.84,6.84,0,0,1-3.79-.2c-.81-.41-1.17-1.47-1.05-3.2a28,28,0,0,0-.16-5c-.1-1-.17-2.09-.22-3.31a.94.94,0,0,1,1.06-.81,1,1,0,0,1,.61.38A1,1,0,0,1,145.51,52.3Z"/><path class="cls-2" d="M151.72,52.93c-.6-.28-.92-.6-.92-1a.94.94,0,0,1,.48-.86,1.24,1.24,0,0,1,1.13-.14c.41.12.73.55,1,1.24.37,1.32-.11,2-1.42,2.15a.52.52,0,0,1-.43-.13.59.59,0,0,1-.21-.4.56.56,0,0,1,.14-.43.54.54,0,0,1,.4-.22h.25l.17,0a1,1,0,0,0,0-.3A.57.57,0,0,1,151.72,52.93Z"/><path class="cls-2" d="M156.77,60.25a2.32,2.32,0,0,0,1.27,1,3.36,3.36,0,0,0,1.53.11,1.59,1.59,0,0,0,1-.55,0,0,0,0,0,0,0v0h0a.89.89,0,0,1,.17-.62.84.84,0,0,1,.57-.3.8.8,0,0,1,.6.18.83.83,0,0,1,.31.55,2.26,2.26,0,0,1-1.55,2.15,5.32,5.32,0,0,1-2.84.22,3.73,3.73,0,0,1-2-1.16,3.86,3.86,0,0,1-1-2.07,3.58,3.58,0,0,1,.78-3.15,4,4,0,0,1,2.52-1.24,3.74,3.74,0,0,1,2.47.48,1.67,1.67,0,0,1,.64,2,3.23,3.23,0,0,1-1.85,1.64A13.77,13.77,0,0,1,156.77,60.25Zm-.32-1.62c.35-.1.77-.21,1.29-.38a10.15,10.15,0,0,0,1.36-.53c.39-.2.59-.39.59-.58s-.42-.22-.91-.24a2.74,2.74,0,0,0-1.44.35A1.79,1.79,0,0,0,156.45,58.63Zm.88-4.16a1.35,1.35,0,0,0,.7-.19,2,2,0,0,0,.44-.43c.1-.12.22-.24.34-.36a.86.86,0,0,0,.4-.35.94.94,0,0,0,.12-.53.86.86,0,0,0-.32-.55.88.88,0,0,0-.61-.18,1.82,1.82,0,0,0-.59.27,1.88,1.88,0,0,0-.31.32,3.6,3.6,0,0,1-.34.37.83.83,0,0,0-.57.71.78.78,0,0,0,.19.61A.82.82,0,0,0,157.33,54.47Z"/><path class="cls-2" d="M163.73,53.61c.24.71.51,1.41.82,2.1a15.24,15.24,0,0,1,1,2.76,5.94,5.94,0,0,1,.15.79,2.18,2.18,0,0,0,.08.36,1.32,1.32,0,0,0,.15.33l.37.52a6.27,6.27,0,0,0,.89-1.87,26.76,26.76,0,0,0,.69-2.59c.2-.88.33-1.56.4-2a.79.79,0,0,1,.13-.62A.87.87,0,0,1,169,53a.83.83,0,0,1,.62.13.82.82,0,0,1,.35.55,16.72,16.72,0,0,1-.58,3.54,17.5,17.5,0,0,1-1.2,3.37c-.79,1.45-1.59,2-2.39,1.58A3.68,3.68,0,0,1,164,59.48,17,17,0,0,0,163,56.26c-.28-.64-.56-1.39-.84-2.24a.82.82,0,0,1,.09-.63.84.84,0,0,1,1.15-.29A.77.77,0,0,1,163.73,53.61Z"/><path class="cls-2" d="M172.65,58.17a2.25,2.25,0,0,0,1.28,1,3.1,3.1,0,0,0,1.53.1,1.48,1.48,0,0,0,1-.54l0,0s0,0,0,0h0a.89.89,0,0,1,.17-.62.88.88,0,0,1,.57-.31.82.82,0,0,1,.92.74,2.26,2.26,0,0,1-1.56,2.16,5.21,5.21,0,0,1-2.86.22,3.77,3.77,0,0,1-2-1.15,4.22,4.22,0,0,1-1.06-2.09,3.7,3.7,0,0,1,.8-3.19A4.09,4.09,0,0,1,174,53.18a3.67,3.67,0,0,1,2.49.49,1.64,1.64,0,0,1,.64,2,3.24,3.24,0,0,1-1.86,1.67A14,14,0,0,1,172.65,58.17Zm-.33-1.64c.35-.08.78-.21,1.29-.37a10.62,10.62,0,0,0,1.37-.53c.4-.21.6-.4.6-.59s-.42-.23-.91-.24a2.91,2.91,0,0,0-1.46.35A1.78,1.78,0,0,0,172.32,56.53Z"/><path class="cls-2" d="M179,49l.06-.07a.84.84,0,0,1,.6-.22.82.82,0,0,1,.59.26,1.65,1.65,0,0,1,0,2.06,1.41,1.41,0,0,1-1.21.59,1.3,1.3,0,0,1-.91-.61,1.39,1.39,0,0,1-.18-1.12A1.42,1.42,0,0,1,179,49Zm1.43,4.08c0,.3.08.85.16,1.67s.15,1.5.23,2.32.14,1.56.19,2.18a9.51,9.51,0,0,1,.07,1.11,2.24,2.24,0,0,1-.07.42.49.49,0,0,1-.15.21.92.92,0,0,1-.25.14l-.29.13-.27-.07a1.13,1.13,0,0,1-.44-.19.81.81,0,0,1-.19-.5c-.11-1.21-.21-2.42-.33-3.63l-.33-3.65a.86.86,0,0,1,.77-.9.84.84,0,0,1,.61.19A.8.8,0,0,1,180.46,53.07Z"/><path class="cls-2" d="M183.4,49.33c0,.5.06,1.29.08,2.37,0,1.38.07,2.78.13,4.16A8.24,8.24,0,0,0,184,58.5a1.3,1.3,0,0,0,.61.54,2.27,2.27,0,0,0,.79.06h0a.81.81,0,0,1,.61.2.83.83,0,0,1,.29.57.82.82,0,0,1-.76.9,4.13,4.13,0,0,1-1.89-.32,2.83,2.83,0,0,1-1.29-1.4,9.47,9.47,0,0,1-.45-2.81q-.1-2-.12-4c0-1.15-.05-2.06-.09-2.75a.81.81,0,0,1,.2-.61.77.77,0,0,1,.56-.3.85.85,0,0,1,.62.2A.82.82,0,0,1,183.4,49.33Z"/><path class="cls-2" d="M143.48,70.54a5.31,5.31,0,0,1,1.45-.89,3.71,3.71,0,0,1,1.78-.14A2.49,2.49,0,0,1,148.58,71a9.19,9.19,0,0,1,.81,2.81,23.52,23.52,0,0,1,.2,2.57v0a.86.86,0,0,1,0,.63.82.82,0,0,1-.42.48.84.84,0,0,1-.64,0,.81.81,0,0,1-.47-.42l0-.08a4.14,4.14,0,0,1-3.46.11c-1.06-.52-1.57-1.2-1.51-2.07a3.16,3.16,0,0,1,1.27-2.26,3.6,3.6,0,0,1,2.86-.77c-.18-.52-.44-.8-.77-.86a2.31,2.31,0,0,0-1.1.1,4,4,0,0,0-.83.55l-.21.17a.83.83,0,0,1-1.24-.91A.84.84,0,0,1,143.48,70.54Zm2.41-1.44a1.23,1.23,0,0,1-.71-.06,2.16,2.16,0,0,1-.52-.35,3.86,3.86,0,0,0-.38-.3.84.84,0,0,1-.47-.28.85.85,0,0,1-.19-.5.84.84,0,0,1,.79-.87,1.57,1.57,0,0,1,.62.16,1.41,1.41,0,0,1,.37.27,3.86,3.86,0,0,0,.39.3.85.85,0,0,1,.69.61.92.92,0,0,1-.08.63A.85.85,0,0,1,145.89,69.1Zm1.93,6c0-.41-.09-.83-.15-1.24a3.76,3.76,0,0,0-1.49-.09,1.83,1.83,0,0,0-1.23.81c-.25.46-.18.8.23,1a2.42,2.42,0,0,0,1.47.2A1.44,1.44,0,0,0,147.82,75.06Z"/><path class="cls-2" d="M155.52,65.23c0,.5,0,1.29.07,2.37,0,1.39.06,2.78.13,4.17a8.15,8.15,0,0,0,.39,2.63,1.24,1.24,0,0,0,.61.54,2,2,0,0,0,.79.07h0a.77.77,0,0,1,.61.2.76.76,0,0,1,.29.56.82.82,0,0,1-.19.62.83.83,0,0,1-.57.29,4,4,0,0,1-1.89-.33A2.8,2.8,0,0,1,154.51,75a9.49,9.49,0,0,1-.45-2.82c-.07-1.31-.11-2.65-.12-4,0-1.16,0-2.07-.09-2.76a.77.77,0,0,1,.2-.6.74.74,0,0,1,.56-.3.84.84,0,0,1,.91.76Z"/><path class="cls-2" d="M159.19,69.15a5,5,0,0,1,1.47-.9,3.65,3.65,0,0,1,1.8-.15,2.52,2.52,0,0,1,1.88,1.5,9.1,9.1,0,0,1,.81,2.84,21.55,21.55,0,0,1,.2,2.59v0a.84.84,0,0,1,0,.64.77.77,0,0,1-.43.47.82.82,0,0,1-.63,0,.81.81,0,0,1-.48-.43.19.19,0,0,1,0-.07,4.17,4.17,0,0,1-3.49.1c-1.08-.51-1.59-1.21-1.53-2.08a3.21,3.21,0,0,1,1.28-2.28,3.64,3.64,0,0,1,2.88-.78c-.18-.51-.44-.8-.78-.86a2.16,2.16,0,0,0-1.1.11,3.46,3.46,0,0,0-.83.53,1.28,1.28,0,0,1-.22.17.84.84,0,0,1-1.25-.9A.83.83,0,0,1,159.19,69.15Zm4.38,4.55c0-.42-.09-.84-.16-1.26a3.75,3.75,0,0,0-1.49-.08,1.77,1.77,0,0,0-1.24.81c-.26.46-.18.8.23,1a2.54,2.54,0,0,0,1.48.19A1.45,1.45,0,0,0,163.57,73.7Z"/><path class="cls-2" d="M171.11,66.53c.24.71.51,1.41.82,2.1a15,15,0,0,1,1,2.76,4.83,4.83,0,0,1,.15.79,2.18,2.18,0,0,0,.08.36,1.5,1.5,0,0,0,.15.33l.37.52a6.27,6.27,0,0,0,.89-1.87,26.76,26.76,0,0,0,.69-2.59c.2-.88.33-1.56.4-2a.79.79,0,0,1,.13-.62.83.83,0,0,1,.55-.35.82.82,0,0,1,1,.68,17.34,17.34,0,0,1-.57,3.54,17.75,17.75,0,0,1-1.21,3.37c-.78,1.45-1.59,2-2.39,1.58a3.68,3.68,0,0,1-1.71-2.69,16.76,16.76,0,0,0-1.09-3.22c-.28-.64-.56-1.39-.84-2.24a.82.82,0,0,1,.09-.63.84.84,0,0,1,1.15-.29A.77.77,0,0,1,171.11,66.53Z"/><path class="cls-2" d="M178.62,62.57s0,0,.06-.07a.92.92,0,0,1,.6-.23.86.86,0,0,1,.59.27,1.64,1.64,0,0,1,0,2.06,1.39,1.39,0,0,1-1.2.59,1.38,1.38,0,0,1-1.09-1.73A1.4,1.4,0,0,1,178.62,62.57Zm1.44,4.08c0,.29.08.84.15,1.67s.16,1.49.23,2.32.14,1.56.2,2.18.07,1,.06,1.1a2.22,2.22,0,0,1-.07.43.41.41,0,0,1-.14.21l-.26.14-.29.13-.27-.07a1,1,0,0,1-.43-.19.75.75,0,0,1-.2-.5c-.11-1.21-.21-2.42-.33-3.63s-.21-2.43-.32-3.65a.81.81,0,0,1,.2-.61.76.76,0,0,1,.56-.29.88.88,0,0,1,.62.19A.83.83,0,0,1,180.06,66.65Z"/><path class="cls-2" d="M183.55,70.79a2.3,2.3,0,0,0,1.29,1,3.26,3.26,0,0,0,1.54.11,1.53,1.53,0,0,0,1-.55l0,0a0,0,0,0,1,0,0h0a.89.89,0,0,1,.17-.62.88.88,0,0,1,.57-.31.84.84,0,0,1,.92.74,2.26,2.26,0,0,1-1.56,2.16,5.21,5.21,0,0,1-2.86.22,3.81,3.81,0,0,1-2-1.15,4.22,4.22,0,0,1-1.06-2.09,3.7,3.7,0,0,1,.8-3.19,4.09,4.09,0,0,1,2.54-1.24,3.67,3.67,0,0,1,2.49.49,1.64,1.64,0,0,1,.64,2A3.27,3.27,0,0,1,186.21,70,13.86,13.86,0,0,1,183.55,70.79Zm-.32-1.64c.35-.08.78-.21,1.29-.37a9.59,9.59,0,0,0,1.37-.53c.4-.21.6-.4.6-.59s-.42-.23-.91-.24a2.91,2.91,0,0,0-1.46.35A1.78,1.78,0,0,0,183.23,69.15Z"/><path class="cls-2" d="M191.47,70.83a1.58,1.58,0,0,1,1.22,1.08,1,1,0,0,1-.54,1.25,1.79,1.79,0,0,1-1.9-.12,1.5,1.5,0,0,1-.61-1.4c.05-.55.45-.88,1.2-1A1,1,0,0,1,191.47,70.83Zm1.18-9.19c0,.23-.07.56-.12,1-.15,1.06-.29,2.29-.46,3.68a17,17,0,0,0-.17,2.8.85.85,0,0,1-.21.64.9.9,0,0,1-.61.32,1,1,0,0,1-.64-.21.88.88,0,0,1-.31-.6,20.06,20.06,0,0,1,.19-3.09c.17-1.51.32-2.82.47-3.93,0-.35.08-.63.11-.85a.81.81,0,0,1,.35-.57.85.85,0,0,1,1.23.18A.83.83,0,0,1,192.65,61.64Z"/><path class="cls-8" d="M274.4,147.45c.13-1-.09-1.86-1.2-2.15-.84-.22-1.78.65-2,1.89a1.69,1.69,0,0,0,1.16,2C273.24,149.49,274.25,148.61,274.4,147.45Zm2.77,1.52c.11-1-.39-1.17-.94-1.32-1-.26-1.5.53-1.68,1.41s0,1.64,1,1.82S276.91,150.18,277.17,149Zm-6.42-2.77a2.51,2.51,0,0,0-1.8-3.08,2.37,2.37,0,0,0-2.37,2.24c-.23,1.51.52,2.81,1.73,3A2.37,2.37,0,0,0,270.75,146.2Zm8.33,5.54c.19-.77-.19-1-.61-1.13-.73-.29-1.22.28-1.45,1s-.17,1.29.58,1.52S278.77,152.67,279.08,151.74ZM259.39,180.4c2.74,1.9,5.88,1.71,8.1-.78a49.78,49.78,0,0,0,10.58-17.76,8,8,0,0,0-2.18-8.58,13.23,13.23,0,0,0-6.16-3.37c-3.1-.48-4.52.55-4.94,3.12a8.86,8.86,0,0,0,1,5.44,10,10,0,0,1,.21,8.91,8.66,8.66,0,0,1-4.21,4.27A7.38,7.38,0,0,0,258,175.3,4,4,0,0,0,259.39,180.4ZM279.27,155c.65.31,1-.2,1.36-.9a.67.67,0,0,0-.35-1c-.54-.33-1,.07-1.28.59S278.69,154.69,279.27,155Z"/><path class="cls-9" d="M62.86,175.5a3.62,3.62,0,0,0,.07-.9,2.57,2.57,0,0,0-.79-1.5q-3.44-3.18-6.84-6.39a1.69,1.69,0,0,1-.38-2,1.87,1.87,0,0,1,1.94-1.13,2.18,2.18,0,0,1,1,.48c1.68,1.54,3.34,3.11,5,4.66a1,1,0,0,0,.64.27.65.65,0,0,0,.49-1c-.44-.74-.91-1.46-1.37-2.18-1-1.54-2-3.08-2.92-4.63a2.08,2.08,0,0,1,.27-2.33,1.76,1.76,0,0,1,2-.54,2,2,0,0,1,1,.89c1.36,2.16,2.72,4.33,4.09,6.49.06.1.14.2.21.3a.56.56,0,0,0,.76.24.58.58,0,0,0,.27-.79c-.25-.73-.52-1.46-.78-2.19-.49-1.35-1-2.7-1.46-4.06a1.78,1.78,0,0,1,1.84-2.31,1.59,1.59,0,0,1,1.49,1.2c.77,2.2,1.57,4.4,2.37,6.59.15.42.41.57.74.47s.42-.37.35-.8c-.22-1.48-.46-3-.68-4.46A1.73,1.73,0,0,1,73,158a1.68,1.68,0,0,1,2,.21,1.79,1.79,0,0,1,.57,1.13c.24,1.6.44,3.22.76,4.82.22,1.13.6,2.22.92,3.33a19,19,0,0,1,1,5.14,8.3,8.3,0,0,1-3.39,6.93,7.18,7.18,0,0,1-4.1,1.45,18.09,18.09,0,0,1-5.67-.7c-1.49-.4-3-.74-4.49-1.09-.87-.2-1.75-.35-2.62-.56a3,3,0,0,1-.91-.37.88.88,0,0,1-.41-1.17,2.71,2.71,0,0,1,1.15-1.43,3.56,3.56,0,0,1,2.94-.66C61.39,175.22,62.07,175.34,62.86,175.5Z"/></g></g></g></g></svg>